<svg width="24" height="24" viewBox="0 0 24 24" fill="none" xmlns="http://www.w3.org/2000/svg">
<path fill-rule="evenodd" clip-rule="evenodd" d="M8.16018 2.76376C9.60535 2.16361 11.1627 1.91715 12.7001 2.02438C13.4111 2.07356 14.1017 2.19681 14.7641 2.38692C15.1201 2.48893 15.4712 2.61175 15.8164 2.75405C18.2757 3.77026 20.2411 5.73908 21.253 8.20061C21.3923 8.54031 21.5121 8.88612 21.6125 9.23634C21.8026 9.89872 21.9267 10.5889 21.9759 11.2999C21.9878 11.4712 21.9952 11.6429 21.9983 11.8146C21.9994 11.8763 22 11.9381 22 12C22 12.0502 21.9996 12.1004 21.9989 12.1504C21.9985 12.1804 21.9979 12.2104 21.9972 12.2403C21.9682 13.4524 21.7202 14.6601 21.2531 15.7992C20.2412 18.2609 18.2756 20.2298 15.8162 21.246C14.3777 21.8391 12.8289 22.0823 11.3 21.9756C10.589 21.9264 9.89832 21.8032 9.23594 21.6131C8.87143 21.5086 8.51208 21.3824 8.15904 21.2358C6.99186 20.7498 5.93654 20.049 5.04246 19.1828C5.00441 19.1459 4.96657 19.1087 4.92896 19.0711C4.89007 19.0322 4.85157 18.993 4.81345 18.9537C3.95371 18.0653 3.25719 17.018 2.77225 15.8601C2.62215 15.5009 2.49393 15.1348 2.3876 14.7637C2.19749 14.1013 2.07331 13.4111 2.02413 12.7001C1.91651 11.1571 2.16549 9.59372 2.77051 8.14402C3.2559 6.98358 3.95376 5.93411 4.81547 5.04424C4.85292 5.00557 4.89076 4.96714 4.92896 4.92893C4.96716 4.89073 5.0056 4.8529 5.04426 4.81545C5.93825 3.94975 6.99333 3.24942 8.16018 2.76376ZM16.906 5.6798L14.8992 7.68664C14.2232 6.66639 13.9611 5.4528 14.1128 4.2826C15.1061 4.55353 16.0573 5.01927 16.906 5.6798ZM13.4644 9.12146C12.3405 7.62245 11.8966 5.77522 12.1325 4.00109C10.355 3.97184 8.56965 4.53141 7.09405 5.6798L12 10.5858L13.4644 9.12146ZM18.3202 7.09402C18.9808 7.94276 19.4465 8.89399 19.7174 9.88725C18.5472 10.0389 17.3336 9.77681 16.3134 9.10086L18.3202 7.09402ZM14.8786 10.5357C16.3776 11.6595 18.2248 12.1035 19.9989 11.8676C20.0282 13.645 19.4686 15.4304 18.3202 16.906L13.4142 12L14.8786 10.5357ZM16.906 18.3202C15.4304 19.4686 13.645 20.0282 11.8676 19.9989C12.1035 18.2248 11.6595 16.3776 10.5357 14.8785L12 13.4142L16.906 18.3202ZM9.88726 19.7174C10.0389 18.5472 9.77682 17.3336 9.10089 16.3134L7.09405 18.3202C7.94278 18.9807 8.894 19.4465 9.88726 19.7174ZM10.5858 12L9.12149 13.4643C7.62248 12.3405 5.77525 11.8965 4.00112 12.1324C3.97187 10.355 4.53144 8.56961 5.67983 7.09402L10.5858 12ZM7.68668 14.8991C6.66643 14.2232 5.45283 13.9611 4.28263 14.1127C4.55356 15.106 5.01929 16.0572 5.67983 16.906L7.68668 14.8991Z" fill="black"/>
</svg>
