<svg width="24" height="24" viewBox="0 0 24 24" fill="none" xmlns="http://www.w3.org/2000/svg">
<path d="M16 4C16 5.10457 15.1046 6 14 6C12.8954 6 12 5.10457 12 4C12 2.89543 12.8954 2 14 2C15.1046 2 16 2.89543 16 4Z" fill="black"/>
<path fill-rule="evenodd" clip-rule="evenodd" d="M6 22C8.20914 22 10 20.2091 10 18C10 15.7909 8.20914 14 6 14C3.79086 14 2 15.7909 2 18C2 20.2091 3.79086 22 6 22ZM6 20C7.10457 20 8 19.1046 8 18C8 16.8954 7.10457 16 6 16C4.89543 16 4 16.8954 4 18C4 19.1046 4.89543 20 6 20Z" fill="black"/>
<path fill-rule="evenodd" clip-rule="evenodd" d="M18 22C20.2091 22 22 20.2091 22 18C22 15.8736 20.3407 14.1347 18.2463 14.0075L17.344 11H19V9.00003H15.3205L11.3 6.1283L8.53164 9.68765C7.46149 11.0636 7.78526 13.0587 9.2356 14.0256L11.3589 15.4412L10.5298 18.7575L12.4701 19.2426L13.641 14.5589L10.345 12.3615C9.86155 12.0392 9.75363 11.3742 10.1103 10.9155L11.6999 8.87176L14.6795 11H15.256L16.2732 14.3909C14.9286 15.0354 14 16.4093 14 18C14 20.2091 15.7909 22 18 22ZM18 20C19.1046 20 20 19.1046 20 18C20 16.8954 19.1046 16 18 16C16.8954 16 16 16.8954 16 18C16 19.1046 16.8954 20 18 20Z" fill="black"/>
</svg>
