<svg width="24" height="24" viewBox="0 0 24 24" fill="none" xmlns="http://www.w3.org/2000/svg">
<path fill-rule="evenodd" clip-rule="evenodd" d="M12 20C16.4183 20 20 16.4183 20 12C20 7.58172 16.4183 4 12 4C7.58172 4 4 7.58172 4 12C4 16.4183 7.58172 20 12 20ZM12 22C17.5228 22 22 17.5228 22 12C22 6.47715 17.5228 2 12 2C6.47715 2 2 6.47715 2 12C2 17.5228 6.47715 22 12 22Z" fill="black"/>
<path d="M10.2124 2.15918L12 3.49987L13.7876 2.15918C14.546 2.29604 15.2746 2.51842 15.9632 2.81597L16 2.99987L12 5.99987L8 2.99987L8.03678 2.81597C8.72536 2.51842 9.45403 2.29604 10.2124 2.15918Z" fill="black"/>
<path d="M2.10463 13.4517L2.2714 13.5342L6.20446 10.4469L4.34196 5.80678L4.15741 5.79488C3.68783 6.38759 3.28401 7.03479 2.95698 7.72543L3.78964 9.7999L2.03324 11.1786C2.01122 11.4494 2 11.7233 2 11.9999C2 12.493 2.03569 12.9777 2.10463 13.4517Z" fill="black"/>
<path d="M8.30828 21.2963L8.46446 21.1922L7.75735 16.2425L2.80761 15.5354L2.7035 15.6915C2.98624 16.4029 3.34826 17.0742 3.77867 17.6944L5.98959 18.0102L6.30543 20.2212C6.92565 20.6516 7.5969 21.0136 8.30828 21.2963Z" fill="black"/>
<path d="M21.2965 15.6915L21.1924 15.5354L16.2426 16.2425L15.5355 21.1922L15.6917 21.2963C16.4031 21.0136 17.0743 20.6516 17.6946 20.2212L18.0104 18.0103L20.2213 17.6944C20.6517 17.0742 21.0138 16.4029 21.2965 15.6915Z" fill="black"/>
<path d="M19.8426 5.79489L19.6581 5.80679L17.7956 10.447L21.7286 13.5342L21.8954 13.4518C21.9643 12.9778 22 12.493 22 11.9999C22 11.7233 21.9888 11.4494 21.9668 11.1786L20.2104 9.7999L21.043 7.72546C20.716 7.03481 20.3122 6.38761 19.8426 5.79489Z" fill="black"/>
<path fill-rule="evenodd" clip-rule="evenodd" d="M10.2084 11.3437L10.6396 13.5H13.3604L13.7916 11.3437L12 10L10.2084 11.3437ZM12 7.5L8 10.5L9 15.5H15L16 10.5L12 7.5Z" fill="black"/>
</svg>
