<svg width="24" height="24" viewBox="0 0 24 24" fill="none" xmlns="http://www.w3.org/2000/svg">
<path fill-rule="evenodd" clip-rule="evenodd" d="M12 20C14.7614 20 17 17.7614 17 15C17 12.2386 14.7614 10 12 10C9.23858 10 7 12.2386 7 15C7 17.7614 9.23858 20 12 20ZM19 15C19 18.866 15.866 22 12 22C8.13401 22 5 18.866 5 15C5 11.134 8.13401 8 12 8C15.866 8 19 11.134 19 15Z" fill="black"/>
<path fill-rule="evenodd" clip-rule="evenodd" d="M12 16C12.5523 16 13 15.5523 13 15C13 14.4477 12.5523 14 12 14C11.4477 14 11 14.4477 11 15C11 15.5523 11.4477 16 12 16ZM15 15C15 16.6569 13.6569 18 12 18C10.3431 18 9 16.6569 9 15C9 13.3431 10.3431 12 12 12C13.6569 12 15 13.3431 15 15Z" fill="black"/>
<path fill-rule="evenodd" clip-rule="evenodd" d="M15 4H9V4.64593L12 5.84593L15 4.64593V4ZM17 6L12 8L7 6V2H17V6Z" fill="black"/>
</svg>
