<svg width="24" height="24" viewBox="0 0 24 24" fill="none" xmlns="http://www.w3.org/2000/svg">
<path fill-rule="evenodd" clip-rule="evenodd" d="M14.7942 9.19613C15.3465 10.1527 16.5697 10.4805 17.5263 9.92819C18.4829 9.3759 18.8106 8.15272 18.2583 7.19613C17.706 6.23955 16.4829 5.9118 15.5263 6.46408C14.5697 7.01637 14.2419 8.23955 14.7942 9.19613Z" fill="black"/>
<path d="M8.32687 5.8076C9.82172 5.10839 11.603 5.66887 12.4282 7.09806L14.7671 11.1492C12.973 10.3006 10.8854 10.3212 9.10557 11.2111C8.4096 11.5591 7.5904 11.5591 6.89443 11.2111C6.59119 11.0595 6.27902 10.9331 5.96089 10.832L10.6961 8.09806C10.3899 7.56773 9.72895 7.35976 9.17426 7.61922L6.42369 8.9058L5.57631 7.09419L8.32687 5.8076Z" fill="black"/>
<path d="M22 11.9064C20.5637 11.3423 18.9466 11.4086 17.5528 12.1055C16.5753 12.5943 15.4247 12.5943 14.4472 12.1055C12.9067 11.3353 11.0933 11.3353 9.55279 12.1055C8.57528 12.5943 7.42472 12.5943 6.44721 12.1055C5.05341 11.4086 3.43634 11.3423 2 11.9064V14.118L2.44721 13.8944C3.42472 13.4056 4.57528 13.4056 5.55279 13.8944C7.09334 14.6647 8.90666 14.6647 10.4472 13.8944C11.4247 13.4056 12.5753 13.4056 13.5528 13.8944C15.0933 14.6647 16.9067 14.6647 18.4472 13.8944C19.4247 13.4056 20.5753 13.4056 21.5528 13.8944L22 14.118V11.9064Z" fill="black"/>
<path d="M22 15.9064C20.5637 15.3423 18.9466 15.4086 17.5528 16.1055C16.5753 16.5943 15.4247 16.5943 14.4472 16.1055C12.9067 15.3353 11.0933 15.3353 9.55279 16.1055C8.57528 16.5943 7.42472 16.5943 6.44721 16.1055C5.05341 15.4086 3.43634 15.3423 2 15.9064V18.118L2.44721 17.8944C3.42472 17.4056 4.57528 17.4056 5.55279 17.8944C7.09334 18.6647 8.90666 18.6647 10.4472 17.8944C11.4247 17.4056 12.5753 17.4056 13.5528 17.8944C15.0933 18.6647 16.9067 18.6647 18.4472 17.8944C19.4247 17.4056 20.5753 17.4056 21.5528 17.8944L22 18.118V15.9064Z" fill="black"/>
</svg>
