<svg width="24" height="24" viewBox="0 0 24 24" fill="none" xmlns="http://www.w3.org/2000/svg">
<path fill-rule="evenodd" clip-rule="evenodd" d="M11.5418 16.8724L12.7327 17.2962C14.4994 17.925 16.5415 17.5295 17.9497 16.1212C19.9024 14.1686 19.9024 11.0028 17.9497 9.05016C15.9971 7.09754 12.8313 7.09754 10.8787 9.05016C9.47043 10.4584 9.07493 12.5005 9.7037 14.2672L10.1275 15.4581L8.05025 17.5354C7.65972 17.926 7.65972 18.5591 8.05025 18.9497C8.44077 19.3402 9.07394 19.3402 9.46446 18.9497L11.5418 16.8724ZM12.0621 19.1804L10.8787 20.3639C9.7071 21.5354 7.80761 21.5354 6.63603 20.3639C5.46446 19.1923 5.46446 17.2928 6.63603 16.1212L7.81947 14.9378C6.94161 12.4711 7.48994 9.61047 9.46446 7.63595C12.1981 4.90228 16.6303 4.90228 19.364 7.63595C22.0976 10.3696 22.0976 14.8018 19.364 17.5354C17.3894 19.51 14.5288 20.0583 12.0621 19.1804Z" fill="black"/>
<path fill-rule="evenodd" clip-rule="evenodd" d="M5 6C5.55228 6 6 5.55228 6 5C6 4.44772 5.55228 4 5 4C4.44772 4 4 4.44772 4 5C4 5.55228 4.44772 6 5 6ZM5 8C6.65685 8 8 6.65685 8 5C8 3.34315 6.65685 2 5 2C3.34315 2 2 3.34315 2 5C2 6.65685 3.34315 8 5 8Z" fill="black"/>
</svg>
