<svg width="24" height="24" viewBox="0 0 24 24" fill="none" xmlns="http://www.w3.org/2000/svg">
<path d="M15.3159 2.56287C14.2782 2.19828 13.1623 2 12 2C6.47715 2 2 6.47715 2 12C2 17.5228 6.47715 22 12 22C17.5228 22 22 17.5228 22 12C22 10.8378 21.8017 9.72185 21.4372 8.68421C20.8979 9.22347 20.3587 9.76272 19.8194 10.302C19.9377 10.8492 20 11.4173 20 12C20 16.4183 16.4183 20 12 20C7.58172 20 4 16.4183 4 12C4 7.58172 7.58172 4 12 4C12.5827 4 13.1509 4.0623 13.6982 4.1806C13.7817 4.19867 13.6156 4.15994 13.6982 4.1806L15.3159 2.56287Z" fill="black"/>
<path d="M14.0903 6.37414C13.4394 6.13221 12.7351 6 12 6C8.68629 6 6 8.68629 6 12C6 15.3137 8.68629 18 12 18C15.3137 18 18 15.3137 18 12C18 11.2648 17.8678 10.5606 17.6258 9.90965L15.976 11.5595C15.9919 11.7041 16 11.8511 16 12C16 14.2091 14.2091 16 12 16C9.79086 16 8 14.2091 8 12C8 9.79086 9.79086 8 12 8C12.1489 8 12.2958 8.00813 12.4404 8.02397L14.0903 6.37414Z" fill="black"/>
<path d="M20 4.00005L19 1L15.5 4.50005L15.8333 6.83327L15.7929 6.79285L11.2929 11.2928L12.7071 12.7071L17.2071 8.20706L17.1668 8.16674L19.5 8.50005L23 5L20 4.00005Z" fill="black"/>
</svg>
