<svg width="24" height="24" viewBox="0 0 24 24" fill="none" xmlns="http://www.w3.org/2000/svg">
<path fill-rule="evenodd" clip-rule="evenodd" d="M17.5 3C19.433 3 21 4.567 21 6.5V13C20.9999 14.7768 20.2274 16.3737 19 17.4722V21H17V18.6586C16.3744 18.8797 15.7013 19 15 19H9C8.29873 19 7.62556 18.8797 7 18.6586V21H5V17.4722C3.7725 16.3736 3 14.777 3 13V11H19V6.5C19 5.67157 18.3284 5 17.5 5C16.8462 5 16.2901 5.41825 16.0847 6.00177C16.7894 6.03113 17.3999 6.42512 17.7324 7C17.9026 7.29417 18 7.63571 18 8V9H12V8C12 7.63571 12.0974 7.29417 12.2676 7C12.6134 6.4022 13.2597 6 14 6H14.0354C14.2781 4.30385 15.7368 3 17.5 3ZM9 17C6.79086 17 5 15.2091 5 13H19C18.9998 15.2089 17.209 17 15 17H9Z" fill="black"/>
</svg>
