<svg width="24" height="24" viewBox="0 0 24 24" fill="none" xmlns="http://www.w3.org/2000/svg">
<path fill-rule="evenodd" clip-rule="evenodd" d="M14 13.7019L14.8558 13.1049C16.156 12.198 17 10.6974 17 9C17 6.23858 14.7614 4 12 4C9.23858 4 7 6.23858 7 9C7 10.6974 7.84396 12.198 9.1442 13.1049L10 13.7019V16H14V13.7019ZM16 14.7453C17.8135 13.4804 19 11.3787 19 9C19 5.13401 15.866 2 12 2C8.13401 2 5 5.13401 5 9C5 11.3787 6.18652 13.4804 8 14.7453V18H16V14.7453Z" fill="black"/>
<path fill-rule="evenodd" clip-rule="evenodd" d="M16 22H8V20H16V22Z" fill="black"/>
</svg>
