<svg width="24" height="24" viewBox="0 0 24 24" fill="none" xmlns="http://www.w3.org/2000/svg">
<path fill-rule="evenodd" clip-rule="evenodd" d="M9 12.8267C10.7252 12.2162 12 10.0628 12 7.5C12 4.46243 10.2091 2 8 2C5.79086 2 4 4.46243 4 7.5C4 10.0628 5.27477 12.2162 7 12.8267V22H9V12.8267ZM10 7.5C10 8.64199 9.6605 9.59461 9.21096 10.2127C8.75998 10.8328 8.30705 11 8 11C7.69295 11 7.24002 10.8328 6.78905 10.2127C6.3395 9.59461 6 8.64199 6 7.5C6 6.35801 6.3395 5.40539 6.78905 4.78726C7.24002 4.16717 7.69295 4 8 4C8.30705 4 8.75998 4.16717 9.21096 4.78726C9.6605 5.40539 10 6.35801 10 7.5Z" fill="black"/>
<path fill-rule="evenodd" clip-rule="evenodd" d="M20 22H18L18 14H14V6C14 3.79086 15.7909 2 18 2H20L20 22ZM16 6L16 12H18L18 4C16.8954 4 16 4.89543 16 6Z" fill="black"/>
</svg>
