<svg width="24" height="24" viewBox="0 0 24 24" fill="none" xmlns="http://www.w3.org/2000/svg">
<path fill-rule="evenodd" clip-rule="evenodd" d="M13.6235 7.48354C13.2857 6.27894 13.7061 4.83908 14.6362 3.90897C16.5454 1.99978 20.6819 2.31798 20.6819 2.31798C20.6819 2.31798 21.0001 6.45456 19.0909 8.36375C17.9863 9.46836 16.1627 9.85398 14.8681 9.10463C14.0242 9.44809 13.394 10.1516 13.1327 11H19L17 22H7.00002L5.00002 11H10.9185C10.7108 10.1315 10.1195 9.39068 9.2961 9.00144C7.99567 9.88586 6.06122 9.51593 4.90903 8.36375C2.99985 6.45456 3.31804 2.31798 3.31804 2.31798C3.31804 2.31798 7.45462 1.99979 9.36381 3.90897C10.2542 4.79941 10.6775 6.15705 10.4156 7.32819C11.0784 7.69129 11.64 8.19539 12.0686 8.79361C12.4868 8.26127 13.0137 7.81273 13.6235 7.48354ZM15.3151 6.45842C15.3575 5.99232 15.5776 5.51309 15.909 5.18177C16.4199 4.67082 17.4147 4.33157 18.5983 4.18363C18.6813 4.17325 18.7634 4.16404 18.844 4.1559C18.8359 4.23656 18.8267 4.31859 18.8163 4.40166C18.6683 5.58518 18.3291 6.58 17.8182 7.09095C17.4868 7.42228 17.0076 7.64246 16.5415 7.68483C16.0875 7.72611 15.7771 7.59552 15.5908 7.40915C15.4044 7.22279 15.2738 6.91244 15.3151 6.45842ZM8.68489 6.45842C8.64252 5.99232 8.42234 5.51309 8.09101 5.18177C7.58006 4.67082 6.58524 4.33157 5.40172 4.18363C5.31865 4.17325 5.23662 4.16404 5.15596 4.1559C5.1641 4.23656 5.17331 4.31859 5.18369 4.40166C5.33163 5.58518 5.67088 6.58 6.18183 7.09095C6.51315 7.42228 6.99238 7.64246 7.45848 7.68483C7.9125 7.72611 8.22285 7.59552 8.40921 7.40915C8.59558 7.22279 8.72617 6.91244 8.68489 6.45842ZM8.66917 20L7.39645 13H16.6036L15.3309 20H8.66917Z" fill="black"/>
</svg>
