<svg width="24" height="24" viewBox="0 0 24 24" fill="none" xmlns="http://www.w3.org/2000/svg">
<path fill-rule="evenodd" clip-rule="evenodd" d="M21 9.17071V3H3V9.17071C1.83481 9.58254 1 10.6938 1 12V19H3V21H5V19H19V21H21V19H23V12C23 10.6938 22.1652 9.58254 21 9.17071ZM19 5H5V9.17071C6.16519 9.58254 7 10.6938 7 12V13H17V12C17 10.6938 17.8348 9.58254 19 9.17071V5ZM5 12V15H19V12C19 11.4477 19.4477 11 20 11C20.5523 11 21 11.4477 21 12V17H3V12C3 11.4477 3.44772 11 4 11C4.55228 11 5 11.4477 5 12Z" fill="black"/>
</svg>
