<svg width="24" height="24" viewBox="0 0 24 24" fill="none" xmlns="http://www.w3.org/2000/svg">
<rect x="4" y="3" width="16" height="18" stroke="black" stroke-width="2"/>
<path d="M6 6H8" stroke="black" stroke-width="2"/>
<path fill-rule="evenodd" clip-rule="evenodd" d="M17 12C17 14.7614 14.7614 17 12 17C9.23858 17 7 14.7614 7 12C7 9.23858 9.23858 7 12 7C14.7614 7 17 9.23858 17 12ZM14.2392 13.9965C13.6898 14.6123 12.8902 15 12 15C10.3431 15 9 13.6569 9 12H9.58579C10.2261 12 10.8401 12.2544 11.2929 12.7071C12.0794 13.4936 13.1321 13.9526 14.2392 13.9965ZM15 12C15 10.3431 13.6569 9 12 9C11.1098 9 10.3102 9.38771 9.7608 10.0035C10.8679 10.0474 11.9206 10.5064 12.7071 11.2929C13.1599 11.7456 13.7739 12 14.4142 12H15Z" fill="black"/>
</svg>
