<svg width="24" height="24" viewBox="0 0 24 24" fill="none" xmlns="http://www.w3.org/2000/svg">
<path fill-rule="evenodd" clip-rule="evenodd" d="M12 20C16.4183 20 20 16.4183 20 12C20 7.58172 16.4183 4 12 4C7.58172 4 4 7.58172 4 12C4 16.4183 7.58172 20 12 20ZM22 12C22 17.5228 17.5228 22 12 22C6.47715 22 2 17.5228 2 12C2 6.47715 6.47715 2 12 2C17.5228 2 22 6.47715 22 12Z" fill="black"/>
<path fill-rule="evenodd" clip-rule="evenodd" d="M11.0811 11.0811L10.1623 13.8377L12.9189 12.9189L13.8377 10.1623L11.0811 11.0811ZM9.5 9.5L7 17L14.5 14.5L17 7L9.5 9.5Z" fill="black"/>
</svg>
