<svg width="24" height="24" viewBox="0 0 24 24" fill="none" xmlns="http://www.w3.org/2000/svg">
<path fill-rule="evenodd" clip-rule="evenodd" d="M12 14C13.1046 14 14 13.1046 14 12C14 10.8954 13.1046 10 12 10C10.8954 10 10 10.8954 10 12C10 13.1046 10.8954 14 12 14ZM12 16C14.2091 16 16 14.2091 16 12C16 9.79086 14.2091 8 12 8C9.79086 8 8 9.79086 8 12C8 14.2091 9.79086 16 12 16Z" fill="black"/>
<path fill-rule="evenodd" clip-rule="evenodd" d="M19.9381 11C19.4869 7.38128 16.6187 4.51314 13 4.06189V2H11V4.06189C7.38128 4.51314 4.51314 7.38128 4.06189 11H2V13H4.06189C4.51314 16.6187 7.38128 19.4869 11 19.9381V22H13V19.9381C16.6187 19.4869 19.4869 16.6187 19.9381 13H22V11H19.9381ZM12 18C15.3137 18 18 15.3137 18 12C18 8.68629 15.3137 6 12 6C8.68629 6 6 8.68629 6 12C6 15.3137 8.68629 18 12 18Z" fill="black"/>
</svg>
