<svg width="24" height="24" viewBox="0 0 24 24" fill="none" xmlns="http://www.w3.org/2000/svg">
<path d="M18 12L18 14H20L20 12H22V10H20L20 8H18L18 10H16V12H18Z" fill="black"/>
<path fill-rule="evenodd" clip-rule="evenodd" d="M10 10C11.1046 10 12 9.10457 12 8C12 6.89543 11.1046 6 10 6C8.89543 6 8 6.89543 8 8C8 9.10457 8.89543 10 10 10ZM10 12C12.2091 12 14 10.2091 14 8C14 5.79086 12.2091 4 10 4C7.79086 4 6 5.79086 6 8C6 10.2091 7.79086 12 10 12Z" fill="black"/>
<path d="M6.27273 16H13.7273C14.4302 16 15 16.5698 15 17.2727V20H17V17.2727C17 15.4653 15.5347 14 13.7273 14H6.27273C4.46525 14 3 15.4652 3 17.2727V20H5V17.2727C5 16.5698 5.56982 16 6.27273 16Z" fill="black"/>
</svg>
