<svg width="24" height="24" viewBox="0 0 24 24" fill="none" xmlns="http://www.w3.org/2000/svg">
<path fill-rule="evenodd" clip-rule="evenodd" d="M12 8.51207L9.54875 5.9826C8.27912 4.67247 6.24745 4.67247 4.97783 5.9826C3.67406 7.32797 3.67406 9.53448 4.97783 10.8799L12 18.1261L19.0222 10.8799C20.3259 9.53448 20.3259 7.32797 19.0222 5.9826C17.7525 4.67247 15.7209 4.67247 14.4513 5.9826L12 8.51207ZM12 21L3.54158 12.2717C1.48614 10.1507 1.48614 6.7118 3.54158 4.59077C5.46959 2.60124 8.52124 2.4779 10.5886 4.22073C10.7252 4.33592 10.8576 4.45927 10.985 4.59077L12 5.63817L13.015 4.59077C13.1424 4.45927 13.2748 4.33592 13.4114 4.22073C15.4788 2.4779 18.5304 2.60124 20.4584 4.59077C22.5139 6.7118 22.5139 10.1507 20.4584 12.2717L12 21Z" fill="black"/>
</svg>
