<svg width="24" height="24" viewBox="0 0 24 24" fill="none" xmlns="http://www.w3.org/2000/svg">
<path fill-rule="evenodd" clip-rule="evenodd" d="M12 20C16.4183 20 20 16.4183 20 12C20 7.58172 16.4183 4 12 4C7.58172 4 4 7.58172 4 12C4 16.4183 7.58172 20 12 20ZM12 22C17.5228 22 22 17.5228 22 12C22 6.47715 17.5228 2 12 2C6.47715 2 2 6.47715 2 12C2 17.5228 6.47715 22 12 22Z" fill="black"/>
<path fill-rule="evenodd" clip-rule="evenodd" d="M8.79952 16.6006C9.53107 15.6267 10.6921 15 11.9999 15C13.3078 15 14.4689 15.6267 15.2004 16.6006L16.7995 15.3994C15.7066 13.9445 13.9636 13 11.9999 13C10.0363 13 8.29332 13.9445 7.20044 15.3994L8.79952 16.6006Z" fill="black"/>
<path fill-rule="evenodd" clip-rule="evenodd" d="M8.29285 10.7072L6.29285 8.70718L7.70706 7.29297L9.70706 9.29297L8.29285 10.7072Z" fill="black"/>
<path fill-rule="evenodd" clip-rule="evenodd" d="M15.7072 10.7072L17.7072 8.70718L16.2929 7.29297L14.2929 9.29297L15.7072 10.7072Z" fill="black"/>
</svg>
