<svg width="24" height="24" viewBox="0 0 24 24" fill="none" xmlns="http://www.w3.org/2000/svg">
<path fill-rule="evenodd" clip-rule="evenodd" d="M12 20C16.4183 20 20 16.4183 20 12C20 7.58172 16.4183 4 12 4C7.58172 4 4 7.58172 4 12C4 16.4183 7.58172 20 12 20ZM12 22C17.5228 22 22 17.5228 22 12C22 6.47715 17.5228 2 12 2C6.47715 2 2 6.47715 2 12C2 17.5228 6.47715 22 12 22Z" fill="black"/>
<path fill-rule="evenodd" clip-rule="evenodd" d="M8.33234 13.5996C8.9505 15.0144 10.3612 16 11.9999 16C13.6386 16 15.0494 15.0144 15.6675 13.5996L17.5003 14.4004C16.5753 16.5173 14.4619 18 11.9999 18C9.53801 18 7.42459 16.5173 6.49963 14.4004L8.33234 13.5996Z" fill="black"/>
<path d="M9 9C9 9.55228 8.55228 10 8 10C7.44772 10 7 9.55228 7 9C7 8.44772 7.44772 8 8 8C8.55228 8 9 8.44772 9 9Z" fill="black"/>
<path d="M17 9C17 9.55228 16.5523 10 16 10C15.4477 10 15 9.55228 15 9C15 8.44772 15.4477 8 16 8C16.5523 8 17 8.44772 17 9Z" fill="black"/>
</svg>
