<svg width="24" height="24" viewBox="0 0 24 24" fill="none" xmlns="http://www.w3.org/2000/svg">
<path fill-rule="evenodd" clip-rule="evenodd" d="M12 6C12.5523 6 13 5.55228 13 5C13 4.44772 12.5523 4 12 4C11.4477 4 11 4.44772 11 5C11 5.55228 11.4477 6 12 6ZM12 8C13.6569 8 15 6.65685 15 5C15 3.34315 13.6569 2 12 2C10.3431 2 9 3.34315 9 5C9 6.65685 10.3431 8 12 8Z" fill="black"/>
<path fill-rule="evenodd" clip-rule="evenodd" d="M8.50001 9L5.20001 13.4L6.80001 14.6L9 11.6667V22H11V17H13V22H15V11.6667L17.2 14.6L18.8 13.4L15.5 9H8.50001ZM13 11H11V15H13V11Z" fill="black"/>
</svg>
