<svg width="24" height="24" viewBox="0 0 24 24" fill="none" xmlns="http://www.w3.org/2000/svg">
<path fill-rule="evenodd" clip-rule="evenodd" d="M12 10C13.6569 10 15 8.65685 15 7C15 5.34315 13.6569 4 12 4C10.3431 4 9 5.34315 9 7C9 8.65685 10.3431 10 12 10ZM12 12C14.7614 12 17 9.76142 17 7C17 4.23858 14.7614 2 12 2C9.23858 2 7 4.23858 7 7C7 9.76142 9.23858 12 12 12Z" fill="black"/>
<path d="M7 16H17C18.1046 16 19 16.8954 19 18V22H21V18C21 15.7909 19.2091 14 17 14H7C4.79086 14 3 15.7909 3 18V22H5V18C5 16.8954 5.89543 16 7 16Z" fill="black"/>
</svg>
