<svg width="24" height="24" viewBox="0 0 24 24" fill="none" xmlns="http://www.w3.org/2000/svg">
<path fill-rule="evenodd" clip-rule="evenodd" d="M12 11C13.1046 11 14 10.1046 14 9C14 7.89543 13.1046 7 12 7C10.8954 7 10 7.89543 10 9C10 10.1046 10.8954 11 12 11ZM12 13C14.2091 13 16 11.2091 16 9C16 6.79086 14.2091 5 12 5C9.79086 5 8 6.79086 8 9C8 11.2091 9.79086 13 12 13Z" fill="black"/>
<path fill-rule="evenodd" clip-rule="evenodd" d="M23 12C23 18.0751 18.0751 23 12 23C5.92487 23 1 18.0751 1 12C1 5.92487 5.92487 1 12 1C18.0751 1 23 5.92487 23 12ZM17.2181 19.3338C15.7462 20.3829 13.9452 21 12 21C10.0548 21 8.25375 20.3829 6.78192 19.3338C8.06471 17.9002 9.92734 17 12 17C14.0727 17 15.9353 17.9002 17.2181 19.3338ZM18.7083 18.0001C17.0613 16.1601 14.6663 15 12 15C9.33375 15 6.93866 16.1601 5.29173 18C3.86658 16.4078 3 14.3051 3 12C3 7.02944 7.02944 3 12 3C16.9706 3 21 7.02944 21 12C21 14.3051 20.1334 16.4078 18.7083 18.0001Z" fill="black"/>
</svg>
