<svg width="24" height="24" viewBox="0 0 24 24" fill="none" xmlns="http://www.w3.org/2000/svg">
<path fill-rule="evenodd" clip-rule="evenodd" d="M11 10C11.5523 10 12 9.55228 12 9C12 8.44772 11.5523 8 11 8C10.4477 8 10 8.44772 10 9C10 9.55228 10.4477 10 11 10ZM11 12C12.6569 12 14 10.6569 14 9C14 7.34315 12.6569 6 11 6C9.34315 6 8 7.34315 8 9C8 10.6569 9.34315 12 11 12Z" fill="black"/>
<path fill-rule="evenodd" clip-rule="evenodd" d="M20 11C20 13.125 19.2635 15.078 18.0319 16.6177L21.7071 20.2928L20.2929 21.7071L16.6177 18.0319C16.3581 18.2396 16.0867 18.4332 15.8047 18.6116C14.4145 19.491 12.7667 20 11 20C9.23331 20 7.58552 19.491 6.19529 18.6116C6.17986 18.6018 6.16446 18.592 6.14909 18.5821C5.56664 18.2087 5.03004 17.77 4.54962 17.2764C2.9718 15.6551 2 13.441 2 11C2 6.02944 6.02944 2 11 2C15.9706 2 20 6.02944 20 11ZM5.63788 15.5C4.61568 14.2832 4 12.7135 4 11C4 7.13401 7.13401 4 11 4C14.866 4 18 7.13401 18 11C18 12.7135 17.3843 14.2832 16.3621 15.5C15.078 13.9715 13.1525 13 11 13C8.84751 13 6.92195 13.9715 5.63788 15.5ZM7.12999 16.8338C8.23853 17.5707 9.56913 18 11 18C12.4309 18 13.7615 17.5707 14.87 16.8338C13.953 15.7144 12.5599 15 11 15C9.44003 15 8.04694 15.7144 7.12999 16.8338Z" fill="black"/>
</svg>
