<svg width="24" height="24" viewBox="0 0 24 24" fill="none" xmlns="http://www.w3.org/2000/svg">
<path fill-rule="evenodd" clip-rule="evenodd" d="M13 6C13 6.33707 13.0417 6.6644 13.1202 6.97712L8.9212 9.26748C8.19127 8.48747 7.15256 8 6 8C3.79086 8 2 9.79086 2 12C2 14.2091 3.79086 16 6 16C7.15259 16 8.19131 15.5125 8.92125 14.7325L13.1202 17.0228C13.0417 17.3356 13 17.6629 13 18C13 20.2091 14.7909 22 17 22C19.2091 22 21 20.2091 21 18C21 15.7909 19.2091 14 17 14C15.8474 14 14.8087 14.4875 14.0788 15.2675L9.87979 12.9771C9.95831 12.6644 10 12.3371 10 12C10 11.6629 9.9583 11.3355 9.87978 11.0228L14.0787 8.73246C14.8087 9.51251 15.8474 10 17 10C19.2091 10 21 8.20914 21 6C21 3.79086 19.2091 2 17 2C14.7909 2 13 3.79086 13 6ZM17 8C18.1046 8 19 7.10457 19 6C19 4.89543 18.1046 4 17 4C15.9117 4 15.0264 4.86931 15.0006 5.95146C15.0002 5.96759 15 5.98377 15 6C15 6.72279 15.3834 7.35603 15.958 7.70742C16.2614 7.89303 16.6182 8 17 8ZM6 10C6.38174 10 6.7385 10.1069 7.04195 10.2925C7.61654 10.6439 8 11.2772 8 12C8 12.7228 7.61657 13.3561 7.04201 13.7074C6.73855 13.893 6.38177 14 6 14C4.89543 14 4 13.1046 4 12C4 10.8954 4.89543 10 6 10ZM15.958 16.2925C15.3834 16.6439 15 17.2772 15 18C15 18.0162 15.0002 18.0324 15.0006 18.0485C15.0263 19.1306 15.9116 20 17 20C18.1046 20 19 19.1046 19 18C19 16.8954 18.1046 16 17 16C16.6182 16 16.2615 16.107 15.958 16.2925Z" fill="black"/>
</svg>
