<svg width="24" height="24" viewBox="0 0 24 24" fill="none" xmlns="http://www.w3.org/2000/svg">
<path fill-rule="evenodd" clip-rule="evenodd" d="M12 10C13.6569 10 15 8.65685 15 7C15 5.34315 13.6569 4 12 4C10.3431 4 9 5.34315 9 7C9 8.65685 10.3431 10 12 10ZM12 12C14.7614 12 17 9.76142 17 7C17 4.23858 14.7614 2 12 2C9.23858 2 7 4.23858 7 7C7 9.76142 9.23858 12 12 12Z" fill="black"/>
<path d="M11 14H7C4.79086 14 3 15.7909 3 18V22H5V18C5 16.8954 5.89543 16 7 16H11V14Z" fill="black"/>
<path fill-rule="evenodd" clip-rule="evenodd" d="M17.1716 14.9999L15 15L15 17.1715L18 20.1715L20.1716 17.9999L17.1716 14.9999ZM23 17.9999L18 12.9999L13 13L13 17.9999L18 23L23 17.9999Z" fill="black"/>
</svg>
