<svg width="24" height="24" viewBox="0 0 24 24" fill="none" xmlns="http://www.w3.org/2000/svg">
<path fill-rule="evenodd" clip-rule="evenodd" d="M7 2H2V7H4V5.41421L5.58578 6.99999L4.29292 8.29285L5.70714 9.70706L6.99999 8.4142L7.8284 9.24262C7.30489 10.033 7.00001 10.9809 7.00001 12C7.00001 14.419 8.71777 16.4367 11 16.9V18H9.00001V20H11V22H13V20H15V18H13V16.9C15.2823 16.4367 17 14.419 17 12C17 10.9809 16.6951 10.033 16.1716 9.24262L20 5.41421V7H22V2H17V4H18.5858L14.7574 7.8284C13.967 7.30488 13.0191 7 12 7C10.9809 7 10.0331 7.30488 9.24262 7.8284L8.4142 6.99999L9.70714 5.70706L8.29292 4.29285L6.99999 5.58578L5.41421 4H7V2ZM12 15C13.6569 15 15 13.6569 15 12C15 10.3431 13.6569 9 12 9C10.3432 9 9.00001 10.3431 9.00001 12C9.00001 13.6569 10.3432 15 12 15Z" fill="black"/>
</svg>
