<svg width="24" height="24" viewBox="0 0 24 24" fill="none" xmlns="http://www.w3.org/2000/svg">
<g clip-path="url(#clip0_207_676)">
<path fill-rule="evenodd" clip-rule="evenodd" d="M12 0.686035L15.4637 3.63778L20.0001 3.99979L20.3621 8.5362L23.3139 11.9999L20.3621 15.4636L20.0001 20L15.4637 20.362L12 23.3138L8.53632 20.362L3.99991 20L3.6379 15.4636L0.686157 11.9999L3.6379 8.5362L3.99991 3.99979L8.53632 3.63778L12 0.686035ZM12 3.31376L9.34079 5.57994L5.85799 5.85787L5.58006 9.34066L3.31388 11.9999L5.58006 14.6591L5.85799 18.1419L9.34079 18.4199L12 20.686L14.6593 18.4199L18.142 18.1419L18.42 14.6591L20.6862 11.9999L18.42 9.34066L18.142 5.85787L14.6593 5.57994L12 3.31376Z" fill="black"/>
<path fill-rule="evenodd" clip-rule="evenodd" d="M16.7071 9.70718L11 15.4143L7.79285 12.2072L9.20706 10.793L11 12.5859L15.2928 8.29297L16.7071 9.70718Z" fill="black"/>
</g>
<defs>
<clipPath id="clip0_207_676">
<rect width="24" height="24" fill="white"/>
</clipPath>
</defs>
</svg>
