<svg width="24" height="24" viewBox="0 0 24 24" fill="none" xmlns="http://www.w3.org/2000/svg">
<path fill-rule="evenodd" clip-rule="evenodd" d="M12 6C12.5523 6 13 5.55228 13 5C13 4.44772 12.5523 4 12 4C11.4477 4 11 4.44772 11 5C11 5.55228 11.4477 6 12 6ZM12 8C13.6569 8 15 6.65685 15 5C15 3.34315 13.6569 2 12 2C10.3431 2 9 3.34315 9 5C9 6.65685 10.3431 8 12 8Z" fill="black"/>
<path fill-rule="evenodd" clip-rule="evenodd" d="M8.5858 9L4.29291 13.2929L5.70712 14.7071L8.31022 12.104L7 18H9V22H11V18H13V22H15V18H17L15.6898 12.104L18.2929 14.7071L19.7071 13.2929L15.4142 9H8.5858ZM13.3957 11H10.6043L9.49323 16H14.5068L13.3957 11Z" fill="black"/>
</svg>
