<svg width="24" height="24" viewBox="0 0 24 24" fill="none" xmlns="http://www.w3.org/2000/svg">
<path fill-rule="evenodd" clip-rule="evenodd" d="M10 9L12 2C12 2 12.7372 2.36861 13.7641 3.10584C16.1199 4.79715 20 8.42854 20 14C20 19 16.2526 22 12 22C7.74745 22 4 19 4 14C4 11.5254 5.48584 9.09554 6.64636 7.57509C7.38996 6.60086 8 6 8 6L10 9ZM7.82792 9.34743C7.77256 9.42674 7.71702 9.50787 7.66152 9.5907C6.73342 10.9759 6 12.5685 6 14C6 17.7736 8.72613 20 12 20C15.2739 20 18 17.7736 18 14C18 10.7175 16.3678 8.19622 14.5858 6.41421C14.1052 5.93365 13.6231 5.51693 13.1757 5.16505L10.7349 13.7079L7.82792 9.34743Z" fill="black"/>
</svg>
