<svg width="24" height="24" viewBox="0 0 24 24" fill="none" xmlns="http://www.w3.org/2000/svg">
<path d="M16.0859 3.98096C17.8872 4.89873 19.3269 6.3962 20.1733 8.23208C21.0196 10.068 21.2233 12.1353 20.7513 14.101C20.2794 16.0667 19.1594 17.8163 17.5719 19.0679C15.9843 20.3194 14.0216 21 12 21C9.97845 21 8.01575 20.3194 6.42817 19.0679C4.8406 17.8163 3.72061 16.0668 3.24868 14.101C2.77675 12.1353 2.98036 10.068 3.82671 8.23209C4.67306 6.39622 6.11284 4.89874 7.91407 3.98097L8.82115 5.76119C7.41979 6.47523 6.29964 7.64026 5.64118 9.06857C4.98273 10.4969 4.82431 12.1053 5.19148 13.6346C5.55864 15.1639 6.42999 16.5251 7.66512 17.4988C8.90025 18.4725 10.4272 19.002 12 19.002C13.5728 19.002 15.0998 18.4725 16.3349 17.4988C17.57 16.5251 18.4414 15.1639 18.8085 13.6346C19.1757 12.1053 19.0173 10.4969 18.3588 9.06856C17.7004 7.64025 16.5802 6.47522 15.1788 5.76119L16.0859 3.98096Z" fill="black"/>
<path fill-rule="evenodd" clip-rule="evenodd" d="M11 7V2H13V7H11Z" fill="black"/>
</svg>
