<svg width="24" height="24" viewBox="0 0 24 24" fill="none" xmlns="http://www.w3.org/2000/svg">
<path d="M8 16C8 16.5523 7.55228 17 7 17C6.44772 17 6 16.5523 6 16C6 15.4477 6.44772 15 7 15C7.55228 15 8 15.4477 8 16Z" fill="black"/>
<path d="M18 16C18 16.5523 17.5523 17 17 17C16.4477 17 16 16.5523 16 16C16 15.4477 16.4477 15 17 15C17.5523 15 18 15.4477 18 16Z" fill="black"/>
<path fill-rule="evenodd" clip-rule="evenodd" d="M21 9V20H19V22H17V20H7V22H5V20H3V9H2V5H3V2H21V5H22V9H21ZM5 4H19V11H5V4ZM5 13V18H19V13H5Z" fill="black"/>
</svg>
