<svg width="24" height="24" viewBox="0 0 24 24" fill="none" xmlns="http://www.w3.org/2000/svg">
<path fill-rule="evenodd" clip-rule="evenodd" d="M8 15H6V13H8V15Z" fill="black"/>
<path fill-rule="evenodd" clip-rule="evenodd" d="M18 15H16V13H18V15Z" fill="black"/>
<path fill-rule="evenodd" clip-rule="evenodd" d="M3 10.5L2 13V18H5V20H7V18H17V20H19V18H22V13L21 10.5H22V8.5H20.3846L19 4H5L3.61538 8.5H2V10.5H3ZM6.47715 6L5.40023 9.5H18.5998L17.5229 6H6.47715ZM19.2459 11.5H4.75407L4 13.3852V16H20V13.3852L19.2459 11.5Z" fill="black"/>
</svg>
