<svg width="24" height="24" viewBox="0 0 24 24" fill="none" xmlns="http://www.w3.org/2000/svg">
<path d="M16.6255 4.13178C15.2423 3.40882 13.6689 3 12 3C6.47715 3 2 7.47715 2 13C2 15.7614 3.11929 18.2614 4.92893 20.0711L6.34315 18.6569C4.89543 17.2091 4 15.2091 4 13C4 8.58172 7.58172 5 12 5C13.1085 5 14.1644 5.22547 15.1243 5.63305L16.6255 4.13178Z" fill="black"/>
<path d="M19.3669 9.87568C19.7745 10.8355 20 11.8914 20 13C20 15.2091 19.1046 17.2091 17.6569 18.6569L19.0711 20.0711C20.8807 18.2614 22 15.7614 22 13C22 11.3311 21.5912 9.75766 20.8682 8.37441L19.3669 9.87568Z" fill="black"/>
<path d="M13.9323 12.4821L19.7071 6.70718L18.2929 5.29297L12.518 11.0679C12.3528 11.0237 12.1792 11.0001 12 11.0001C10.8954 11.0001 10 11.8956 10 13.0001C10 14.1047 10.8954 15.0001 12 15.0001C13.1046 15.0001 14 14.1047 14 13.0001C14 12.821 13.9764 12.6473 13.9323 12.4821Z" fill="black"/>
</svg>
