<svg width="24" height="24" viewBox="0 0 24 24" fill="none" xmlns="http://www.w3.org/2000/svg">
<path fill-rule="evenodd" clip-rule="evenodd" d="M13 5H15.618L16.618 7H19V9H17.618L18.6266 11.0172C18.7496 11.0058 18.8741 11 19 11C21.2091 11 23 12.7909 23 15C23 17.2091 21.2091 19 19 19C16.7909 19 15 17.2091 15 15C15 13.6322 15.6865 12.4248 16.7337 11.7035L16.2015 10.6391L13.0744 16H10L8.98456 14.6461C8.99478 14.7627 9 14.8807 9 15C9 17.2091 7.20914 19 5 19C2.79086 19 1 17.2091 1 15C1 12.7909 2.79086 11 5 11C5.51313 11 6.0037 11.0966 6.4545 11.2727L5.5 10H1V8H6.5L7.82195 9.7626L11.7878 8H14.882L14.382 7H13V5ZM5 17C6.10457 17 7 16.1046 7 15C7 13.8954 6.10457 13 5 13C3.89543 13 3 13.8954 3 15C3 16.1046 3.89543 17 5 17ZM21 15C21 16.1046 20.1046 17 19 17C17.8954 17 17 16.1046 17 15C17 13.8954 17.8954 13 19 13C20.1046 13 21 13.8954 21 15ZM9.05305 11.4041L11 14H11.9256L14.259 10H12.2122L9.05305 11.4041Z" fill="black"/>
</svg>
