<svg width="24" height="24" viewBox="0 0 24 24" fill="none" xmlns="http://www.w3.org/2000/svg">
<path fill-rule="evenodd" clip-rule="evenodd" d="M13.6242 22C13.331 22.4444 12.8333 22.8333 12 23C11.1667 22.8333 10.669 22.4444 10.3758 22C10.1775 21.6994 10.0727 21.3734 10.0209 21.0735C9.91949 20.4867 10.0209 20 10.0209 20H13.9791C13.9791 20 14.0805 20.4867 13.9791 21.0736C13.9273 21.3734 13.8225 21.6994 13.6242 22Z" fill="black"/>
<path fill-rule="evenodd" clip-rule="evenodd" d="M8.99997 19L4 21V13L6.75357 11.8986C6.62244 10.5205 6.65524 9.14919 6.99999 8C8.49995 3.00016 12 1 12 1C12 1 15.5 3 17 8C17.3877 9.29225 17.4747 10.6513 17.3907 11.9563L20 13V21L15 19L8.99997 19ZM15.0843 8.57469C15.6784 10.5549 15.4045 12.8783 14.8791 14.8632C14.6565 15.704 14.4009 16.4394 14.1837 17H9.91675C9.70694 16.3525 9.45671 15.5093 9.23614 14.5749C8.7152 12.3682 8.46591 10.0738 8.91565 8.5747C9.56089 6.4239 10.6285 4.93857 11.5165 3.9983C11.6858 3.81907 11.8484 3.65983 12 3.51989C12.1516 3.65982 12.3142 3.81904 12.4835 3.99825C13.3715 4.93848 14.4391 6.42381 15.0843 8.57469ZM17.1253 14.0042C16.879 15.2956 16.5176 16.4514 16.1982 17.3252L18 18.0459V14.3541L17.1253 14.0042ZM7.05263 13.933L6 14.3541V18.0459L7.90791 17.2828C7.62632 16.3823 7.29837 15.2034 7.05263 13.933Z" fill="black"/>
<path fill-rule="evenodd" clip-rule="evenodd" d="M12 12C13.1046 12 14 11.1046 14 10C14 8.89543 13.1046 8 12 8C10.8954 8 10 8.89543 10 10C10 11.1046 10.8954 12 12 12Z" fill="black"/>
</svg>
