<svg width="24" height="24" viewBox="0 0 24 24" fill="none" xmlns="http://www.w3.org/2000/svg">
<path fill-rule="evenodd" clip-rule="evenodd" d="M11 3V2H13V3H17V7H20V13.2857L22.5 14L21.0026 19.9898C21.3348 20.0041 21.6675 20 22 20V22H21.4773C20.4144 22 19.3555 21.8696 18.3243 21.6119L16.0596 21.0457L15.8624 21.1196C13.3721 22.0535 10.6279 22.0535 8.13764 21.1196L7.94044 21.0457L5.6757 21.6119C4.64453 21.8696 3.58564 22 2.52273 22H2V20C2.33248 20 2.66517 20.0041 2.99744 19.9898L1.5 14L4 13.2857V7H7V3H11ZM4.9914 19.7194C5.05794 19.7041 5.12435 19.6881 5.19062 19.6716L8.05956 18.9543L8.83989 19.247C10.8774 20.011 13.1226 20.011 15.1601 19.247L15.9404 18.9543L18.8094 19.6716C18.8757 19.6881 18.9421 19.7041 19.0086 19.7194L20.0905 15.3916L12 13.08L3.90946 15.3916L4.9914 19.7194ZM9 7V5H15V7H9ZM18 12.7143V9H6V12.7143L12 11L18 12.7143Z" fill="black"/>
</svg>
