<svg width="24" height="24" viewBox="0 0 24 24" fill="none" xmlns="http://www.w3.org/2000/svg">
<path d="M8 14C8 14.5523 7.55228 15 7 15C6.44772 15 6 14.5523 6 14C6 13.4477 6.44772 13 7 13C7.55228 13 8 13.4477 8 14Z" fill="black"/>
<path d="M18 14C18 14.5523 17.5523 15 17 15C16.4477 15 16 14.5523 16 14C16 13.4477 16.4477 13 17 13C17.5523 13 18 13.4477 18 14Z" fill="black"/>
<path fill-rule="evenodd" clip-rule="evenodd" d="M3 18V2H21V18H3ZM5 4H19V9H5V4ZM5 11V16H19V11H5Z" fill="black"/>
<path d="M17.5662 19H6.43379L4.66666 22H6.96618L7.56618 21H16.4338L17.0338 22H19.3333L17.5662 19Z" fill="black"/>
</svg>
