<svg width="24" height="24" viewBox="0 0 24 24" fill="none" xmlns="http://www.w3.org/2000/svg">
<path fill-rule="evenodd" clip-rule="evenodd" d="M8.82929 19H15.1707C15.5825 20.1652 16.6938 21 18 21C19.3062 21 20.4175 20.1652 20.8293 19H23V11L20 7H16V4H1V19H3.17071C3.58254 20.1652 4.69378 21 6 21C7.30622 21 8.41746 20.1652 8.82929 19ZM14 6H3V17H3.17071C3.58254 15.8348 4.69378 15 6 15C7.30622 15 8.41746 15.8348 8.82929 17H14V6ZM20.8293 17H21V11.6667L19 9H16V15.7639C16.5308 15.2889 17.2316 15 18 15C19.3062 15 20.4175 15.8348 20.8293 17ZM7 18C7 18.5523 6.55228 19 6 19C5.44772 19 5 18.5523 5 18C5 17.4477 5.44772 17 6 17C6.55228 17 7 17.4477 7 18ZM19 18C19 18.5523 18.5523 19 18 19C17.4477 19 17 18.5523 17 18C17 17.4477 17.4477 17 18 17C18.5523 17 19 17.4477 19 18Z" fill="black"/>
</svg>
