<svg width="24" height="24" viewBox="0 0 24 24" fill="none" xmlns="http://www.w3.org/2000/svg">
<path fill-rule="evenodd" clip-rule="evenodd" d="M10.5 15C9.94772 15 9.5 15.4477 9.5 16V17H7.5V16C7.5 14.3431 8.84315 13 10.5 13H13.5C15.1569 13 16.5 14.3431 16.5 16V17H14.5V16C14.5 15.4477 14.0523 15 13.5 15H10.5Z" fill="black"/>
<path fill-rule="evenodd" clip-rule="evenodd" d="M12 12C13.1046 12 14 11.1046 14 10C14 8.89543 13.1046 8 12 8C10.8954 8 10 8.89543 10 10C10 11.1046 10.8954 12 12 12Z" fill="black"/>
<path fill-rule="evenodd" clip-rule="evenodd" d="M20 22H4V2H16L20 6V22ZM18 20H6V4H15V7H18V20Z" fill="black"/>
</svg>
