<svg width="24" height="24" viewBox="0 0 24 24" fill="none" xmlns="http://www.w3.org/2000/svg">
<path fill-rule="evenodd" clip-rule="evenodd" d="M12 6L10 3H2V21H22V6H12ZM20 8H10.9296L8.92963 5H4V19H20V8Z" fill="black"/>
<path fill-rule="evenodd" clip-rule="evenodd" d="M10.5 16C9.94772 16 9.5 16.4477 9.5 17V18H7.5V17C7.5 15.3431 8.84315 14 10.5 14H13.5C15.1569 14 16.5 15.3431 16.5 17V18H14.5V17C14.5 16.4477 14.0523 16 13.5 16H10.5Z" fill="black"/>
<path fill-rule="evenodd" clip-rule="evenodd" d="M12 13C13.1046 13 14 12.1046 14 11C14 9.89543 13.1046 9 12 9C10.8954 9 10 9.89543 10 11C10 12.1046 10.8954 13 12 13Z" fill="black"/>
</svg>
