<svg width="24" height="24" viewBox="0 0 24 24" fill="none" xmlns="http://www.w3.org/2000/svg">
<path d="M18.7868 7.45995L9.00001 1.16846V4.75584L11 6.75584V4.83179L15.2132 7.5403L13.2062 8.96199L14.6408 10.3967L18.7868 7.45995Z" fill="black"/>
<path fill-rule="evenodd" clip-rule="evenodd" d="M15.9385 14.5228L18.2811 16.8654L9.00001 22.8318V14.3922L5.57803 16.8161L4.422 15.1841L8.91702 12.0001L4.422 8.81615L5.57803 7.1841L9.00001 9.608V7.58427L11 9.58427V10.5247L11.5505 10.1347L12.9852 11.5694L12.3771 12.0001L15.9385 14.5228ZM15.2132 16.4599L11 13.4756V19.1685L15.2132 16.4599Z" fill="black"/>
<path fill-rule="evenodd" clip-rule="evenodd" d="M20.2928 21.7072L2.29285 3.70718L3.70706 2.29297L21.7071 20.293L20.2928 21.7072Z" fill="black"/>
</svg>
