<svg width="24" height="24" viewBox="0 0 24 24" fill="none" xmlns="http://www.w3.org/2000/svg">
<path d="M9.32158 7.90577C9.07402 8.24851 8.85673 8.61456 8.67363 9H7C4.23858 9 2 11.2386 2 14C2 16.7614 4.23858 19 7 19H15C16.5287 19 17.9429 18.51 19.0942 17.6784L17.654 16.2382C16.8849 16.7209 15.975 17 15 17H7C5.34315 17 4 15.6569 4 14C4 12.3431 5.34315 11 7 11H9.93774L10.4802 9.85818C10.5642 9.68134 10.6582 9.51027 10.7615 9.34569L9.32158 7.90577Z" fill="black"/>
<path d="M19.1028 14.8586C19.6683 14.0484 20 13.0629 20 12C20 9.23858 17.7614 7 15 7C13.938 7 12.9522 7.33109 12.1412 7.89701L10.7114 6.46715C11.8961 5.54752 13.3841 5 15 5C18.866 5 22 8.13401 22 12C22 13.6159 21.4525 15.1039 20.5328 16.2886L19.1028 14.8586Z" fill="black"/>
<path fill-rule="evenodd" clip-rule="evenodd" d="M20.2929 21.7072L2.29291 3.70718L3.70712 2.29297L21.7071 20.293L20.2929 21.7072Z" fill="black"/>
</svg>
