<svg width="24" height="24" viewBox="0 0 24 24" fill="none" xmlns="http://www.w3.org/2000/svg">
<path fill-rule="evenodd" clip-rule="evenodd" d="M15.7071 11.7072L11.5 15.9143L8.79291 13.2072L10.2071 11.793L11.5 13.0859L14.2929 10.293L15.7071 11.7072Z" fill="black"/>
<path fill-rule="evenodd" clip-rule="evenodd" d="M9.93774 11H7C5.34315 11 4 12.3431 4 14C4 15.6569 5.34315 17 7 17H15C17.7614 17 20 14.7614 20 12C20 9.23858 17.7614 7 15 7C13.0084 7 11.2848 8.16429 10.4802 9.85818L9.93774 11ZM22 12C22 15.866 18.866 19 15 19H7C4.23858 19 2 16.7614 2 14C2 11.2386 4.23858 9 7 9H8.67363C9.7971 6.63505 12.2076 5 15 5C18.866 5 22 8.13401 22 12Z" fill="black"/>
</svg>
