<svg width="24" height="24" viewBox="0 0 24 24" fill="none" xmlns="http://www.w3.org/2000/svg">
<path d="M9.70712 17.7073L8.29291 16.293L12 12.5859L15.7071 16.293L14.2929 17.7073L13 16.4144V20.0001H11V16.4144L9.70712 17.7073Z" fill="black"/>
<path d="M7 11H9.93774L10.4802 9.85818C11.2848 8.16429 13.0084 7 15 7C17.7614 7 20 9.23858 20 12C20 13.6358 19.2144 15.0882 18 16.0004V18.3264C20.3649 17.2029 22 14.7924 22 12C22 8.13401 18.866 5 15 5C12.2076 5 9.7971 6.63505 8.67363 9H7C4.23858 9 2 11.2386 2 14C2 16.419 3.71776 18.4367 6 18.9V16.8293C4.83481 16.4175 4 15.3062 4 14C4 12.3431 5.34315 11 7 11Z" fill="black"/>
</svg>
