<svg width="24" height="24" viewBox="0 0 24 24" fill="none" xmlns="http://www.w3.org/2000/svg">
<path fill-rule="evenodd" clip-rule="evenodd" d="M10 11.9004C10 13.005 10.8954 13.9004 12 13.9004C13.1046 13.9004 14 13.005 14 11.9004C14 10.7958 13.1046 9.90039 12 9.90039C10.8954 9.90039 10 10.7958 10 11.9004Z" fill="black"/>
<path fill-rule="evenodd" clip-rule="evenodd" d="M16 11.9004C16 10.7564 15.617 9.70477 14.9718 8.86265L16.5594 7.64624C17.4627 8.82522 18 10.3015 18 11.9004C18 13.5668 17.4164 15.0997 16.4434 16.3018L14.8888 15.0435C15.5842 14.1844 16 13.0923 16 11.9004Z" fill="black"/>
<path fill-rule="evenodd" clip-rule="evenodd" d="M8 11.9004C8 10.7549 8.38397 9.70201 9.03075 8.85934L7.44421 7.6416C6.53871 8.82135 6 10.2994 6 11.9004C6 13.5656 6.58267 15.0973 7.55437 16.299L9.10956 15.0415C8.41518 14.1828 8 13.0914 8 11.9004Z" fill="black"/>
<path fill-rule="evenodd" clip-rule="evenodd" d="M20 11.9005C20 9.66842 19.1888 7.6284 17.8438 6.05531L19.3639 4.75562C21.0069 6.67724 22 9.17415 22 11.9005C22 14.6895 20.9607 17.2383 19.2497 19.1768L17.7503 17.8533C19.1511 16.2661 20 14.1837 20 11.9005Z" fill="black"/>
<path fill-rule="evenodd" clip-rule="evenodd" d="M4 11.9003C4 9.66844 4.81114 7.62853 6.15595 6.05548L4.63576 4.75586C2.99299 6.67743 2 9.1742 2 11.9003C2 14.6856 3.03649 17.2313 4.74335 19.1688L6.24408 17.8467C4.8466 16.2604 4 14.1805 4 11.9003Z" fill="black"/>
</svg>
