<svg width="24" height="24" viewBox="0 0 24 24" fill="none" xmlns="http://www.w3.org/2000/svg">
<circle cx="12" cy="18" r="2" fill="black"/>
<path d="M13.6439 12.228C13.1214 12.0795 12.57 12 12 12C9.83058 12 7.9301 13.1513 6.87622 14.8763L8.35346 16.3535C8.9811 14.9657 10.3778 14 12 14C13.6222 14 15.0188 14.9657 15.6465 16.3535L16.7079 15.292L13.6439 12.228Z" fill="black"/>
<path d="M9.68516 8.26923C7.37775 8.81609 5.37968 10.1624 3.99963 11.9995L5.43178 13.4317C6.77633 11.5021 8.9494 10.1929 11.4355 10.0195L9.68516 8.26923Z" fill="black"/>
<path d="M14.7177 10.4734C16.288 11.0405 17.6299 12.085 18.5683 13.4317L20.0005 11.9995C18.2221 9.63222 15.4176 8.07986 12.2473 8.00293L14.7177 10.4734Z" fill="black"/>
<path d="M6.52634 5.11048C4.42018 6.00602 2.57846 7.4027 1.15088 9.15084L2.57354 10.5735C3.98058 8.78998 5.88295 7.41539 8.07312 6.65726L6.52634 5.11048Z" fill="black"/>
<path d="M10.356 6.11169C10.8935 6.03805 11.4423 6 12 6C15.8234 6 19.229 7.78803 21.4265 10.5735L22.8492 9.15084C20.2819 6.00711 16.3754 4 12 4C10.8447 4 9.72205 4.13995 8.64811 4.40382L10.356 6.11169Z" fill="black"/>
<path fill-rule="evenodd" clip-rule="evenodd" d="M20.2928 21.7072L2.29285 3.70718L3.70706 2.29297L21.7071 20.293L20.2928 21.7072Z" fill="black"/>
</svg>
