<svg width="24" height="24" viewBox="0 0 24 24" fill="none" xmlns="http://www.w3.org/2000/svg">
<circle cx="12" cy="18" r="2" fill="black"/>
<path d="M15.6465 16.3535C15.0188 14.9657 13.6222 14 12 14C10.3778 14 8.9811 14.9657 8.35346 16.3535L6.87622 14.8763C7.9301 13.1513 9.83058 12 12 12C14.1693 12 16.0698 13.1513 17.1237 14.8763L15.6465 16.3535Z" fill="black"/>
<path d="M18.5683 13.4317C17.1229 11.3574 14.72 10 12.0001 10C9.28011 10 6.8772 11.3574 5.43178 13.4317L3.99963 11.9996C5.82407 9.57093 8.7286 8 12.0001 8C15.2715 8 18.176 9.57093 20.0005 11.9996L18.5683 13.4317Z" fill="black"/>
<path d="M21.4265 10.5735C19.229 7.78803 15.8234 6 12 6C8.17673 6 4.77104 7.78803 2.57354 10.5735L1.15088 9.15084C3.71815 6.00711 7.6247 4 12 4C16.3754 4 20.2819 6.00711 22.8492 9.15084L21.4265 10.5735Z" fill="black"/>
</svg>
