<?xml version="1.0" encoding="UTF-8"?>
<svg id="Layer_2" xmlns="http://www.w3.org/2000/svg" viewBox="0 0 214.4 54.42">
  <defs>
    <style>
      .cls-1 {
        stroke: #000;
        stroke-miterlimit: 10;
      }
    </style>
  </defs>
  <g id="Layer_1-2" data-name="Layer_1">
    <g>
      <path class="cls-1" d="M.5,14.47h10.94v7.78c1.1-2.64,2.62-4.75,4.54-6.34,1.92-1.58,4.51-2.3,7.78-2.16v11.45h-.58c-3.65,0-6.52,1.1-8.6,3.31-2.09,2.21-3.13,5.64-3.13,10.3v14.26H.5V14.47Z"/>
      <path class="cls-1" d="M45.28,53.92c-2.88,0-5.56-.48-8.03-1.44-2.47-.96-4.61-2.33-6.41-4.1-1.8-1.77-3.2-3.88-4.21-6.3-1.01-2.42-1.51-5.12-1.51-8.1v-.14c0-2.74.47-5.33,1.4-7.78.94-2.45,2.24-4.58,3.92-6.41,1.68-1.82,3.68-3.26,6.01-4.32,2.33-1.06,4.91-1.58,7.74-1.58,3.22,0,6,.58,8.35,1.73,2.35,1.15,4.31,2.7,5.87,4.64,1.56,1.94,2.71,4.18,3.46,6.7.74,2.52,1.12,5.15,1.12,7.88,0,.43-.01.89-.04,1.37-.02.48-.06.98-.11,1.51h-26.86c.53,2.5,1.62,4.38,3.28,5.65,1.66,1.27,3.71,1.91,6.16,1.91,1.82,0,3.46-.31,4.9-.94s2.93-1.63,4.46-3.02l6.26,5.54c-1.82,2.26-4.03,4.02-6.62,5.29-2.59,1.27-5.64,1.91-9.14,1.91ZM52.34,30.74c-.34-2.45-1.2-4.43-2.59-5.94-1.39-1.51-3.24-2.27-5.54-2.27s-4.16.74-5.58,2.23c-1.42,1.49-2.34,3.48-2.77,5.98h16.49Z"/>
      <path class="cls-1" d="M64.08,14.47h11.59l8.64,25.85,8.71-25.85h11.38l-15.19,38.88h-9.94l-15.19-38.88Z"/>
      <path class="cls-1" d="M107.35.5h11.52v9.72h-11.52V.5ZM107.63,14.47h10.94v38.59h-10.94V14.47Z"/>
      <path class="cls-1" d="M123.98,45.36l19.94-22.03h-19.3v-8.86h32.9v7.7l-20.02,22.03h20.02v8.86h-33.55v-7.71Z"/>
      <path class="cls-1" d="M180.5,53.92c-2.88,0-5.56-.48-8.03-1.44-2.47-.96-4.61-2.33-6.41-4.1-1.8-1.77-3.2-3.88-4.21-6.3-1.01-2.42-1.51-5.12-1.51-8.1v-.14c0-2.74.47-5.33,1.4-7.78.94-2.45,2.24-4.58,3.92-6.41,1.68-1.82,3.68-3.26,6.01-4.32,2.33-1.06,4.91-1.58,7.74-1.58,3.22,0,6,.58,8.35,1.73,2.35,1.15,4.31,2.7,5.87,4.64,1.56,1.94,2.71,4.18,3.46,6.7.74,2.52,1.12,5.15,1.12,7.88,0,.43-.01.89-.04,1.37-.02.48-.06.98-.11,1.51h-26.86c.53,2.5,1.62,4.38,3.28,5.65,1.66,1.27,3.71,1.91,6.16,1.91,1.82,0,3.46-.31,4.9-.94s2.93-1.63,4.46-3.02l6.26,5.54c-1.82,2.26-4.03,4.02-6.62,5.29-2.59,1.27-5.64,1.91-9.14,1.91ZM187.55,30.74c-.34-2.45-1.2-4.43-2.59-5.94-1.39-1.51-3.24-2.27-5.54-2.27s-4.16.74-5.58,2.23c-1.42,1.49-2.34,3.48-2.77,5.98h16.49Z"/>
      <path class="cls-1" d="M202.31,41.54h11.59v11.52h-11.59v-11.52Z"/>
    </g>
  </g>
</svg>