<svg width="24" height="24" viewBox="0 0 24 24" fill="none" xmlns="http://www.w3.org/2000/svg">
<path fill-rule="evenodd" clip-rule="evenodd" d="M10.7077 9.29175C9.69769 9.77458 9 10.8058 9 11.9999C9 13.6568 10.3431 14.9999 12 14.9999C13.1941 14.9999 14.2253 14.3022 14.7082 13.2922L10.7077 9.29175ZM13 11.9999C13 12.5522 12.5523 12.9999 12 12.9999C11.4477 12.9999 11 12.5522 11 11.9999C11 11.4476 11.4477 10.9999 12 10.9999C12.5523 10.9999 13 11.4476 13 11.9999Z" fill="black"/>
<path d="M19.6822 15.438C21.2676 13.7089 22 12 22 12C22 12 19 5 12 5C11.1202 5 10.3036 5.11058 9.5482 5.30393L11.2762 7.03189C11.5114 7.01093 11.7527 7 12 7C14.7637 7 16.7698 8.36439 18.1594 9.8609C18.8536 10.6085 19.3659 11.3624 19.7033 11.9292L19.7451 12L19.7033 12.0708C19.3835 12.608 18.9065 13.3134 18.2665 14.0222L19.6822 15.438Z" fill="black"/>
<path fill-rule="evenodd" clip-rule="evenodd" d="M9.00541 7.58957C7.71241 8.12688 6.66738 8.9705 5.84059 9.8609C5.14637 10.6085 4.63408 11.3624 4.29671 11.9292L4.25491 12L4.29671 12.0708C4.63408 12.6376 5.14637 13.3915 5.84059 14.1391C7.23021 15.6356 9.23629 17 12 17C13.9628 17 15.5435 16.3118 16.7926 15.3768L18.2183 16.8025C16.6681 18.0249 14.6127 19 12 19C5 19 2 12 2 12C2 12 3.69242 8.05101 7.50099 6.08516L9.00541 7.58957ZM3.83518 12.795L3.83621 12.7927C3.83515 12.7951 3.83485 12.7958 3.83518 12.795Z" fill="black"/>
<path fill-rule="evenodd" clip-rule="evenodd" d="M20.2929 21.7072L2.29291 3.70718L3.70712 2.29297L21.7071 20.293L20.2929 21.7072Z" fill="black"/>
</svg>
