<svg width="24" height="24" viewBox="0 0 24 24" fill="none" xmlns="http://www.w3.org/2000/svg">
<path fill-rule="evenodd" clip-rule="evenodd" d="M13 11V5C13 4.44772 12.5523 4 12 4C11.4477 4 11 4.44772 11 5V11C11 11.5523 11.4477 12 12 12C12.5523 12 13 11.5523 13 11ZM12 2C10.3431 2 9 3.34315 9 5V11C9 12.6569 10.3431 14 12 14C13.6569 14 15 12.6569 15 11V5C15 3.34315 13.6569 2 12 2Z" fill="black"/>
<path d="M12 16C9.23858 16 7 13.7614 7 11H5C5 14.5265 7.60771 17.4439 11 17.9291V22H13V17.9291C16.3923 17.4439 19 14.5265 19 11H17C17 13.7614 14.7614 16 12 16Z" fill="black"/>
</svg>
