<svg width="24" height="24" viewBox="0 0 24 24" fill="none" xmlns="http://www.w3.org/2000/svg">
<path d="M15.7374 14.3216C14.8215 15.3513 13.4865 16 12 16C9.23858 16 7 13.7614 7 11H5C5 14.5265 7.60771 17.4439 11 17.9291V22H13V17.9291C14.6346 17.6953 16.087 16.8968 17.1533 15.7375L15.7374 14.3216Z" fill="black"/>
<path d="M18.2997 14.0555C18.7484 13.1322 19 12.0955 19 11H17C17 11.5301 16.9175 12.041 16.7646 12.5204L18.2997 14.0555Z" fill="black"/>
<path d="M9 7.5842V11C9 12.6569 10.3431 14 12 14C12.9343 14 13.7689 13.5729 14.3191 12.9033L12.8839 11.4681C12.716 11.7845 12.3832 12 12 12C11.4477 12 11 11.5523 11 11V9.5842L9 7.5842Z" fill="black"/>
<path d="M13 8.75577V5C13 4.44772 12.5523 4 12 4C11.4477 4 11 4.44772 11 5V6.75577L9.00908 4.76485C9.12902 3.2179 10.4223 2 12 2C13.6569 2 15 3.34315 15 5V10.7558L13 8.75577Z" fill="black"/>
<path fill-rule="evenodd" clip-rule="evenodd" d="M20.2929 21.7072L2.29291 3.70718L3.70712 2.29297L21.7071 20.293L20.2929 21.7072Z" fill="black"/>
</svg>
