<svg width="24" height="24" viewBox="0 0 24 24" fill="none" xmlns="http://www.w3.org/2000/svg">
<path fill-rule="evenodd" clip-rule="evenodd" d="M19.7451 12C19.7315 12.0232 19.7176 12.0468 19.7033 12.0708C19.3659 12.6376 18.8536 13.3915 18.1594 14.1391C16.7698 15.6356 14.7637 17 12 17C9.23629 17 7.23021 15.6356 5.84059 14.1391C5.14637 13.3915 4.63408 12.6376 4.29671 12.0708C4.28244 12.0468 4.26851 12.0232 4.25491 12C4.26851 11.9768 4.28244 11.9532 4.29671 11.9292C4.63408 11.3624 5.14637 10.6085 5.84059 9.8609C7.23021 8.36439 9.23629 7 12 7C14.7637 7 16.7698 8.36439 18.1594 9.8609C18.8536 10.6085 19.3659 11.3624 19.7033 11.9292C19.7176 11.9532 19.7315 11.9768 19.7451 12ZM20.1637 11.2074C20.1644 11.2059 20.1648 11.205 20.1649 11.2048L20.1648 11.205L20.1638 11.2073L20.1637 11.2074ZM3.83627 12.7926C3.83521 12.795 3.83485 12.7958 3.83518 12.795L3.83621 12.7927L3.83627 12.7926ZM2 12C2 12 5 5 12 5C19 5 22 12 22 12C22 12 19 19 12 19C5 19 2 12 2 12ZM20.1637 12.7926L20.1638 12.7927L20.1648 12.795L20.1649 12.7953C20.1649 12.7953 20.1645 12.7944 20.1637 12.7926Z" fill="black"/>
<path fill-rule="evenodd" clip-rule="evenodd" d="M12 13C12.5523 13 13 12.5523 13 12C13 11.4477 12.5523 11 12 11C11.4477 11 11 11.4477 11 12C11 12.5523 11.4477 13 12 13ZM12 15C13.6569 15 15 13.6569 15 12C15 10.3431 13.6569 9 12 9C10.3431 9 9 10.3431 9 12C9 13.6569 10.3431 15 12 15Z" fill="black"/>
</svg>
