<svg width="24" height="24" viewBox="0 0 24 24" fill="none" xmlns="http://www.w3.org/2000/svg">
<path fill-rule="evenodd" clip-rule="evenodd" d="M7.5 17V19H13V17H7.5Z" fill="black"/>
<path fill-rule="evenodd" clip-rule="evenodd" d="M4 22.5V1.5H20V22.5H4ZM6 3.5H18V6.5H6V3.5ZM6 8.5V20.5H18V8.5H6Z" fill="black"/>
<path d="M7.5 10H9.5V12H7.5V10Z" fill="black"/>
<path d="M7.5 13.5H9.5V15.5H7.5V13.5Z" fill="black"/>
<path d="M11 10H13V12H11V10Z" fill="black"/>
<path d="M11 13.5H13V15.5H11V13.5Z" fill="black"/>
<path d="M14.5 10H16.5V12H14.5V10Z" fill="black"/>
<path d="M14.5 13.5H16.5V15.5H14.5V13.5Z" fill="black"/>
<path d="M14.5 17H16.5V19H14.5V17Z" fill="black"/>
</svg>
