<svg width="24" height="24" viewBox="0 0 24 24" fill="none" xmlns="http://www.w3.org/2000/svg">
<path d="M3 15.3323V17.0769C3 19.371 7.02944 21 12 21C16.9706 21 21 19.371 21 17.0769V15.3323C20.4288 15.7744 19.7375 16.1274 19 16.409V17.0504C19 17.0504 18.9986 17.053 18.997 17.0569C18.9733 17.1142 18.7972 17.5401 17.5799 18.0588C16.2645 18.6193 14.2974 19 12 19C9.70262 19 7.73547 18.6193 6.42006 18.0588C5.20282 17.5401 5.02669 17.1142 5.00298 17.0569C5.00139 17.0531 5 17.0504 5 17.0504V16.409C4.26248 16.1274 3.57123 15.7744 3 15.3323Z" fill="black"/>
<path d="M21 10.0681C20.404 10.5743 19.6954 10.9706 19 11.2688V12.4193C18.9857 12.4343 18.9674 12.4524 18.944 12.4737C18.7451 12.6554 18.3429 12.9098 17.6652 13.1624C16.3222 13.6632 14.3235 14 12 14C9.67653 14 7.67781 13.6632 6.33476 13.1624C5.65713 12.9098 5.25491 12.6554 5.05596 12.4737C5.03263 12.4524 5.01427 12.4343 5 12.4193V11.2688C4.3046 10.9706 3.59604 10.5743 3 10.0681V12.5673C3 14.5747 7.02944 16 12 16C16.9706 16 21 14.5747 21 12.5673V10.0681Z" fill="black"/>
<path fill-rule="evenodd" clip-rule="evenodd" d="M18.9874 7.10749C18.9383 7.00005 18.6986 6.55708 17.5324 6.024C16.2197 5.42387 14.2656 5 12 5C9.73441 5 7.78033 5.42387 6.46756 6.024C5.30145 6.55708 5.06172 7.00005 5.01259 7.10749C5.06446 7.21134 5.30835 7.6001 6.41373 8.06663C7.73109 8.62264 9.70059 9 12 9C14.2994 9 16.2689 8.62264 17.5863 8.06663C18.6916 7.6001 18.9355 7.21134 18.9874 7.10749ZM12 11C16.9706 11 21 9.38654 21 7.11429C21 4.84203 16.9706 3 12 3C7.02944 3 3 4.84203 3 7.11429C3 9.38654 7.02944 11 12 11Z" fill="black"/>
</svg>
