<svg width="24" height="24" viewBox="0 0 24 24" fill="none" xmlns="http://www.w3.org/2000/svg">
<path fill-rule="evenodd" clip-rule="evenodd" d="M16 11C16.5523 11 17 10.5523 17 10C17 9.44772 16.5523 9 16 9C15.4477 9 15 9.44772 15 10C15 10.5523 15.4477 11 16 11Z" fill="black"/>
<path fill-rule="evenodd" clip-rule="evenodd" d="M16 15C16.5523 15 17 14.5523 17 14C17 13.4477 16.5523 13 16 13C15.4477 13 15 13.4477 15 14C15 14.5523 15.4477 15 16 15Z" fill="black"/>
<path fill-rule="evenodd" clip-rule="evenodd" d="M18 13C18.5523 13 19 12.5523 19 12C19 11.4477 18.5523 11 18 11C17.4477 11 17 11.4477 17 12C17 12.5523 17.4477 13 18 13Z" fill="black"/>
<path fill-rule="evenodd" clip-rule="evenodd" d="M14 13C14.5523 13 15 12.5523 15 12C15 11.4477 14.5523 11 14 11C13.4477 11 13 11.4477 13 12C13 12.5523 13.4477 13 14 13Z" fill="black"/>
<path d="M7 13V15H9V13H11V11L9 11V9H7V11L5 11V13H7Z" fill="black"/>
<path fill-rule="evenodd" clip-rule="evenodd" d="M13 5H16C19.866 5 23 8.13401 23 12C23 15.866 19.866 19 16 19H8C4.13401 19 1 15.866 1 12C1 8.13401 4.13401 5 8 5H11V3H13V5ZM8 7H16C18.7614 7 21 9.23858 21 12C21 14.7614 18.7614 17 16 17H8C5.23858 17 3 14.7614 3 12C3 9.23858 5.23858 7 8 7Z" fill="black"/>
</svg>
