<svg width="24" height="24" viewBox="0 0 24 24" fill="none" xmlns="http://www.w3.org/2000/svg">
<path fill-rule="evenodd" clip-rule="evenodd" d="M20 7H4V17H20V7ZM2 5V19H22V5H2Z" fill="black"/>
<path fill-rule="evenodd" clip-rule="evenodd" d="M16 16H8V14H16V16Z" fill="black"/>
<path d="M5 8H7V10H5V8Z" fill="black"/>
<path d="M8 8H10V10H8V8Z" fill="black"/>
<path d="M11 8H13V10H11V8Z" fill="black"/>
<path d="M14 8H16V10H14V8Z" fill="black"/>
<path d="M17 8H19V10H17V8Z" fill="black"/>
<path d="M5 11H7V13H5V11Z" fill="black"/>
<path d="M8 11H10V13H8V11Z" fill="black"/>
<path d="M11 11H13V13H11V11Z" fill="black"/>
<path d="M14 11H16V13H14V11Z" fill="black"/>
<path d="M17 11H19V13H17V11Z" fill="black"/>
</svg>
