<svg width="24" height="24" viewBox="0 0 24 24" fill="none" xmlns="http://www.w3.org/2000/svg">
<path fill-rule="evenodd" clip-rule="evenodd" d="M19 15H5V20H19V15ZM3 13V22H21V13H3Z" fill="black"/>
<path fill-rule="evenodd" clip-rule="evenodd" d="M19 4H5V9H19V4ZM3 2V11H21V2H3Z" fill="black"/>
<path fill-rule="evenodd" clip-rule="evenodd" d="M13 18.5H7V16.5H13V18.5Z" fill="black"/>
<path fill-rule="evenodd" clip-rule="evenodd" d="M13 7.5H7V5.5H13V7.5Z" fill="black"/>
<path d="M17 17.5C17 18.0523 16.5523 18.5 16 18.5C15.4477 18.5 15 18.0523 15 17.5C15 16.9477 15.4477 16.5 16 16.5C16.5523 16.5 17 16.9477 17 17.5Z" fill="black"/>
<path d="M17 6.5C17 7.05228 16.5523 7.5 16 7.5C15.4477 7.5 15 7.05228 15 6.5C15 5.94772 15.4477 5.5 16 5.5C16.5523 5.5 17 5.94772 17 6.5Z" fill="black"/>
</svg>
