<svg width="24" height="24" viewBox="0 0 24 24" fill="none" xmlns="http://www.w3.org/2000/svg">
<path fill-rule="evenodd" clip-rule="evenodd" d="M16 2V6.25469C17.8135 7.51964 19 9.62125 19 12C19 14.3787 17.8135 16.4804 16 17.7453V22H8V17.7453C6.18652 16.4804 5 14.3787 5 12C5 9.62125 6.18652 7.51964 8 6.25469V2H16ZM10 4H14V5.28988C13.3663 5.10128 12.695 5 12 5C11.305 5 10.6337 5.10128 10 5.28988V4ZM8 8.99951C7.37209 9.83526 7 10.8742 7 12C7 13.1258 7.37209 14.1647 8 15.0005C8.91223 16.2147 10.3644 17 12 17C13.6356 17 15.0878 16.2147 16 15.0005C16.6279 14.1647 17 13.1258 17 12C17 10.8742 16.6279 9.83526 16 8.99951C15.0878 7.78534 13.6356 7 12 7C10.3644 7 8.91223 7.78534 8 8.99951ZM10 20V18.7101C10.6337 18.8987 11.305 19 12 19C12.695 19 13.3663 18.8987 14 18.7101V20H10Z" fill="black"/>
</svg>
