<svg width="24" height="24" viewBox="0 0 24 24" fill="none" xmlns="http://www.w3.org/2000/svg">
<path fill-rule="evenodd" clip-rule="evenodd" d="M20.5 3.5H15V5.5H17.0859L14.2929 8.29297L15.7071 9.70718L18.5 6.9143V9H20.5V3.5Z" fill="black"/>
<path fill-rule="evenodd" clip-rule="evenodd" d="M2 2H9.40578L10.8575 7.80675L6.60938 12.0548C7.82198 13.9777 9.40957 15.6409 11.2693 16.9415L15.0463 13.1645L22 14.5552V22H21C17.275 22 13.7975 20.927 10.8633 19.0728C8.22706 17.4069 6.02935 15.1105 4.48161 12.3947C2.90205 9.6231 2 6.41538 2 3V2ZM13.0229 18.0163C15.1243 19.135 17.4883 19.8255 20 19.9711V16.1948L15.7037 15.3355L13.0229 18.0163ZM5.60821 10.2276L8.64254 7.19325L7.84422 4H4.0289C4.15742 6.21755 4.71066 8.31969 5.60821 10.2276Z" fill="black"/>
</svg>
