<svg width="24" height="24" viewBox="0 0 24 24" fill="none" xmlns="http://www.w3.org/2000/svg">
<path fill-rule="evenodd" clip-rule="evenodd" d="M22.4142 11.9999L18.3425 16.0716L14.375 13.6911L14.375 9.51352C12.9963 9.2299 11.5762 9.19603 10.1875 9.41199V13.0976L5.68508 16.0992L1.58578 11.9999L2.29289 11.2928C4.19572 9.38996 6.52088 8.16123 8.96748 7.60941C11.1653 7.11371 13.4611 7.16412 15.6392 7.76085C17.8626 8.36997 19.9625 9.5482 21.7071 11.2928L22.4142 11.9999ZM8.1875 9.90591C6.84941 10.3645 5.57772 11.0722 4.4439 12.0296L5.93992 13.5256L8.1875 12.0272V9.90591ZM16.375 10.115L16.375 12.5587L18.0325 13.5532L19.5561 12.0296C18.5822 11.2072 17.5068 10.5693 16.375 10.115Z" fill="black"/>
</svg>
