<svg width="24" height="24" viewBox="0 0 24 24" fill="none" xmlns="http://www.w3.org/2000/svg">
<path d="M11 2.04932C5.94668 2.55104 2 6.81459 2 11.9999C2 14.4631 2.89058 16.7183 4.3673 18.4611L5.78759 17.0408C4.66987 15.665 4 13.9107 4 11.9999C4 7.92032 7.05369 4.55393 11 4.06183V2.04932Z" fill="black"/>
<path d="M12 21.9999C9.66074 21.9999 7.50907 21.1967 5.80576 19.851L7.23221 18.4246C8.5637 19.4143 10.2135 19.9999 12 19.9999C16.0796 19.9999 19.446 16.9463 19.9381 13H21.9506C21.4489 18.0533 17.1853 21.9999 12 21.9999Z" fill="black"/>
<path d="M21.9506 11C21.4816 6.27556 17.7244 2.51839 13 2.04932V4.06183C16.6187 4.51308 19.4869 7.38126 19.9381 11H21.9506Z" fill="black"/>
</svg>
