<svg width="24" height="24" viewBox="0 0 24 24" fill="none" xmlns="http://www.w3.org/2000/svg">
<path fill-rule="evenodd" clip-rule="evenodd" d="M9 6.2918C8.33309 6.49063 7.69594 6.78887 7.11101 7.17971C5.95987 7.94888 5.06266 9.04213 4.53285 10.3212C4.00303 11.6003 3.86441 13.0078 4.13451 14.3656C4.4046 15.7235 5.07129 16.9708 6.05026 17.9497C7.02922 18.9287 8.2765 19.5954 9.63437 19.8655C10.9922 20.1356 12.3997 19.997 13.6788 19.4672C14.9579 18.9373 16.0511 18.0401 16.8203 16.889C17.2111 16.3041 17.5094 15.6669 17.7082 15H15.5912C15.4728 15.2717 15.3301 15.5336 15.1639 15.7822C14.6136 16.6058 13.8315 17.2477 12.9164 17.6267C12.0014 18.0057 10.9944 18.1049 10.023 17.9117C9.05157 17.7184 8.15925 17.2415 7.45889 16.5411C6.75852 15.8407 6.28157 14.9484 6.08833 13.977C5.8951 13.0056 5.99428 11.9986 6.37331 11.0836C6.75235 10.1685 7.39422 9.38636 8.21777 8.83609C8.46644 8.66993 8.72831 8.52716 9 8.40881V6.2918ZM9 4.22503C7.93497 4.46778 6.91745 4.90366 5.99987 5.51677C4.51983 6.50571 3.36628 7.91131 2.68509 9.55585C2.0039 11.2004 1.82567 13.01 2.17294 14.7558C2.5202 16.5016 3.37737 18.1053 4.63604 19.364C5.89471 20.6226 7.49836 21.4798 9.24419 21.8271C10.99 22.1743 12.7996 21.9961 14.4442 21.3149C16.0887 20.6337 17.4943 19.4802 18.4832 18.0001C19.0963 17.0825 19.5322 16.065 19.775 15C19.9238 14.3472 20 13.6765 20 13H14.0079C14.0079 13.5949 13.8315 14.1764 13.501 14.6711C13.1705 15.1657 12.7007 15.5513 12.1511 15.7789C11.6015 16.0066 10.9967 16.0662 10.4132 15.9501C9.82972 15.834 9.29376 15.5476 8.8731 15.1269C8.45244 14.7062 8.16596 14.1703 8.0499 13.5868C7.93384 13.0033 7.99341 12.3985 8.22107 11.8489C8.44873 11.2993 8.83426 10.8295 9.32891 10.499C9.82355 10.1685 10.4051 9.9921 11 9.99211V4C10.3235 4 9.65284 4.07623 9 4.22503Z" fill="black"/>
<path fill-rule="evenodd" clip-rule="evenodd" d="M19.7082 9C19.6397 8.77018 19.5593 8.54361 19.4672 8.32122C19.1154 7.47194 18.5998 6.70026 17.9497 6.05025C17.2997 5.40024 16.5281 4.88463 15.6788 4.53284C15.4564 4.44073 15.2298 4.36031 15 4.2918L15 6.40881C15.5747 6.65915 16.0975 7.01527 16.5411 7.45888C16.9847 7.9025 17.3409 8.42533 17.5912 9H19.7082ZM21.775 9C21.9242 9.65461 22 10.3254 22 11H16.0079C16.0079 10.605 15.9301 10.2139 15.7789 9.84893C15.6278 9.48399 15.4062 9.15241 15.1269 8.8731C14.8476 8.59379 14.516 8.37223 14.1511 8.22107C13.7861 8.06991 13.395 7.99211 13 7.99211L13 2C13.6746 2 14.3454 2.07584 15 2.22504C15.4923 2.33724 15.9755 2.49094 16.4442 2.68508C17.5361 3.13738 18.5282 3.80031 19.364 4.63604C20.1997 5.47177 20.8626 6.46392 21.3149 7.55585C21.5091 8.02455 21.6628 8.5077 21.775 9Z" fill="black"/>
</svg>
