<svg width="24" height="24" viewBox="0 0 24 24" fill="none" xmlns="http://www.w3.org/2000/svg">
<path fill-rule="evenodd" clip-rule="evenodd" d="M12 8C9.79086 8 8 9.79086 8 12C8 13.1048 8.44662 14.1035 9.17157 14.8284L7.75736 16.2426C6.67267 15.1579 6 13.6566 6 12C6 8.68629 8.68629 6 12 6C13.6566 6 15.1579 6.67267 16.2426 7.75736C17.3273 8.84205 18 10.3434 18 12C18 13.6566 17.3273 15.1579 16.2426 16.2426L14.8284 14.8284C15.5534 14.1035 16 13.1048 16 12C16 10.8952 15.5534 9.89653 14.8284 9.17157C14.1035 8.44662 13.1048 8 12 8Z" fill="black"/>
<path fill-rule="evenodd" clip-rule="evenodd" d="M12 4C7.58172 4 4 7.58172 4 12C4 14.2094 4.89434 16.208 6.34315 17.6569L4.92893 19.0711C3.12038 17.2625 2 14.7611 2 12C2 6.47715 6.47715 2 12 2C14.7611 2 17.2625 3.12038 19.0711 4.92893C20.8796 6.73748 22 9.23885 22 12C22 14.7611 20.8796 17.2625 19.0711 19.0711L17.6569 17.6569C19.1057 16.208 20 14.2094 20 12C20 9.79058 19.1057 7.79196 17.6569 6.34315C16.208 4.89434 14.2094 4 12 4Z" fill="black"/>
<path d="M13 13.7324C13.5978 13.3866 14 12.7403 14 12C14 10.8954 13.1046 10 12 10C10.8954 10 10 10.8954 10 12C10 12.7403 10.4022 13.3866 11 13.7324V21H13V13.7324Z" fill="black"/>
</svg>
