<svg width="24" height="24" viewBox="0 0 24 24" fill="none" xmlns="http://www.w3.org/2000/svg">
<rect x="4" y="3" width="16" height="18" stroke="black" stroke-width="2"/>
<circle cx="12" cy="6.5" r="1.5" fill="black"/>
<circle cx="12" cy="14" r="1" fill="black"/>
<path fill-rule="evenodd" clip-rule="evenodd" d="M12 17C13.6569 17 15 15.6569 15 14C15 12.3431 13.6569 11 12 11C10.3431 11 9 12.3431 9 14C9 15.6569 10.3431 17 12 17ZM12 19C14.7614 19 17 16.7614 17 14C17 11.2386 14.7614 9 12 9C9.23858 9 7 11.2386 7 14C7 16.7614 9.23858 19 12 19Z" fill="black"/>
</svg>
