<svg width="24" height="24" viewBox="0 0 24 24" fill="none" xmlns="http://www.w3.org/2000/svg">
<path d="M16 18.929C19.3923 18.4438 22 15.5264 22 11.9999C22 8.47344 19.3923 5.55603 16 5.0708V7.09993C18.2822 7.5632 20 9.58095 20 11.9999C20 14.4189 18.2822 16.4366 16 16.8999V18.929Z" fill="black"/>
<path d="M16 15.8739C17.7252 15.4299 19 13.8638 19 12C19 10.1361 17.7252 8.57002 16 8.12598V10.2675C16.5978 10.6133 17 11.2597 17 12C17 12.7402 16.5978 13.3866 16 13.7324V15.8739Z" fill="black"/>
<path fill-rule="evenodd" clip-rule="evenodd" d="M7 7H2V17H7L11 22H15V2H11L7 7ZM11.9613 4L7.96125 9H4V15H7.96125L11.9612 20H13V4H11.9613Z" fill="black"/>
</svg>
