<svg width="24" height="24" viewBox="0 0 24 24" fill="none" xmlns="http://www.w3.org/2000/svg">
<path fill-rule="evenodd" clip-rule="evenodd" d="M17 16C17.5253 16 18.0454 15.8965 18.5307 15.6955C18.6924 15.6286 18.8491 15.5512 19 15.4641C19.3021 15.2897 19.5807 15.0761 19.8284 14.8284C20.1999 14.457 20.4945 14.016 20.6955 13.5307C20.8965 13.0454 21 12.5253 21 12C21 11.4747 20.8965 10.9546 20.6955 10.4693C20.4945 9.98396 20.1999 9.54301 19.8284 9.17157C19.5807 8.92386 19.3021 8.71031 19 8.5359C18.8491 8.44879 18.6924 8.37144 18.5307 8.30448C18.0454 8.10346 17.5253 8 17 8V10C17.2626 10 17.5227 10.0517 17.7654 10.1522C18.008 10.2528 18.2285 10.4001 18.4142 10.5858C18.5999 10.7715 18.7472 10.992 18.8478 11.2346C18.9483 11.4773 19 11.7374 19 12C19 12.2626 18.9483 12.5227 18.8478 12.7654C18.7472 13.008 18.5999 13.2285 18.4142 13.4142C18.2285 13.5999 18.008 13.7472 17.7654 13.8478C17.5227 13.9483 17.2626 14 17 14V16Z" fill="black"/>
<path fill-rule="evenodd" clip-rule="evenodd" d="M8 7H3V17H8L12 22H16V2H12L8 7ZM12.9613 4L8.96125 9H5V15H8.96125L12.9612 20H14V4H12.9613Z" fill="black"/>
</svg>
