<svg width="24" height="24" viewBox="0 0 24 24" fill="none" xmlns="http://www.w3.org/2000/svg">
<path fill-rule="evenodd" clip-rule="evenodd" d="M19.4497 6.86398C18.2782 5.69241 16.3787 5.69241 15.2071 6.86398L8.13603 13.935C7.74551 14.3256 7.74551 14.9587 8.13603 15.3493C8.52656 15.7398 9.15972 15.7398 9.55025 15.3493L17.3284 7.57109L18.7426 8.9853L10.9645 16.7635C9.79289 17.935 7.89339 17.935 6.72182 16.7635C5.55025 15.5919 5.55025 13.6924 6.72182 12.5208L13.7929 5.44977C15.7455 3.49715 18.9113 3.49715 20.864 5.44977C22.8166 7.40239 22.8166 10.5682 20.864 12.5208L13.7929 19.5919C11.0592 22.3256 6.62706 22.3256 3.89339 19.5919C1.15972 16.8582 1.15972 12.4261 3.89339 9.69241L10.9645 2.62134L12.3787 4.03555L5.30761 11.1066C3.35498 13.0592 3.35498 16.2251 5.30761 18.1777C7.26023 20.1303 10.4261 20.1303 12.3787 18.1777L19.4497 11.1066C20.6213 9.93505 20.6213 8.03555 19.4497 6.86398Z" fill="black"/>
</svg>
