<svg width="24" height="24" viewBox="0 0 24 24" fill="none" xmlns="http://www.w3.org/2000/svg">
<path fill-rule="evenodd" clip-rule="evenodd" d="M4 5.5H9C10.1046 5.5 11 6.39543 11 7.5V19.0585L10.5562 18.9105C9.74042 18.6386 8.88619 18.5 8.02633 18.5H4V5.5ZM12 21.5L9.9237 20.8079C9.3119 20.604 8.67123 20.5 8.02633 20.5H2V3.5H9C10.1947 3.5 11.2671 4.02376 12 4.85418C12.7329 4.02376 13.8053 3.5 15 3.5H22V20.5H15.9737C15.3288 20.5 14.6881 20.604 14.0763 20.8079L12 21.5ZM13 7.5V19.0585L13.4438 18.9105C14.2596 18.6386 15.1138 18.5 15.9737 18.5H20V5.5H15C13.8954 5.5 13 6.39543 13 7.5Z" fill="black"/>
</svg>
