<svg width="24" height="24" viewBox="0 0 24 24" fill="none" xmlns="http://www.w3.org/2000/svg">
<path d="M12 20C16.4183 20 20 16.4183 20 12C20 10.6702 19.6755 9.41611 19.1014 8.3127L11 16.4142L6.29285 11.7071L7.70706 10.2928L11 13.5857L17.9422 6.64353L17.9414 6.64273L19.3572 5.22701C20.9979 7.0084 22 9.38718 22 12C22 17.5228 17.5228 22 12 22C6.47715 22 2 17.5228 2 12C2 6.47715 6.47715 2 12 2C14.1887 2 16.2132 2.70315 17.8598 3.89589L16.4229 5.33281C15.156 4.49067 13.6353 4 12 4C7.58172 4 4 7.58172 4 12C4 16.4183 7.58172 20 12 20Z" fill="black"/>
</svg>
