<svg width="24" height="24" viewBox="0 0 24 24" fill="none" xmlns="http://www.w3.org/2000/svg">
<path fill-rule="evenodd" clip-rule="evenodd" d="M14 4C14 4.74028 13.5978 5.38663 13 5.73244V8.12602C13.7149 8.31003 14.3525 8.68673 14.8541 9.19746L16.9279 8.00015C16.9285 7.30955 17.2871 6.63809 17.9282 6.26795C18.8848 5.71567 20.108 6.04342 20.6602 7C21.2125 7.95659 20.8848 9.17977 19.9282 9.73206C19.2871 10.1022 18.5262 10.0771 17.9278 9.73222L15.855 10.929C15.9495 11.2699 16 11.629 16 12C16 12.3709 15.9495 12.7301 15.855 13.0709L17.9279 14.2677C18.5263 13.923 19.2871 13.8978 19.9282 14.268C20.8848 14.8202 21.2125 16.0434 20.6602 17C20.108 17.9566 18.8848 18.2843 17.9282 17.7321C17.2871 17.3619 16.9284 16.6904 16.9279 15.9997L14.8541 14.8025C14.3526 15.3132 13.7149 15.69 13 15.874V18.2676C13.5978 18.6134 14 19.2597 14 20C14 21.1046 13.1045 22 12 22C10.8954 22 9.99997 21.1046 9.99997 20C9.99997 19.2597 10.4022 18.6134 11 18.2676V15.874C10.285 15.69 9.64742 15.3132 9.14585 14.8025L7.07208 15.9998C7.07151 16.6904 6.71286 17.3619 6.07175 17.7321C5.11516 18.2843 3.89198 17.9566 3.33969 17C2.78741 16.0434 3.11516 14.8202 4.07174 14.268C4.71284 13.8978 5.47368 13.923 6.07206 14.2677L8.14496 13.071C8.05047 12.7301 7.99997 12.3709 7.99997 12C7.99997 11.629 8.05048 11.2698 8.14498 10.9289L6.07217 9.7322C5.47377 10.0771 4.71288 10.1022 4.07175 9.73206C3.11516 9.17977 2.78741 7.95659 3.33969 7C3.89198 6.04342 5.11516 5.71567 6.07175 6.26795C6.71282 6.63808 7.07146 7.30951 7.07208 8.00009L9.14592 9.19743C9.64748 8.68672 10.2851 8.31003 11 8.12602V5.73244C10.4022 5.38663 9.99997 4.74028 9.99997 4C9.99997 2.89543 10.8954 2 12 2C13.1045 2 14 2.89543 14 4ZM10.2871 13.033L10.247 12.9637C10.0896 12.6779 9.99997 12.3494 9.99997 12C9.99997 11.6495 10.0901 11.3201 10.2485 11.0337L10.2855 10.9696C10.6354 10.3886 11.2723 10 12 10C12.7292 10 13.3672 10.3903 13.7167 10.9733L13.7493 11.0299C13.909 11.3172 14 11.648 14 12C14 12.3508 13.9097 12.6805 13.751 12.9671L13.7149 13.0296C13.3651 13.6111 12.728 14 12 14C11.2734 14 10.6373 13.6126 10.2871 13.033Z" fill="black"/>
</svg>
