<svg width="24" height="24" viewBox="0 0 24 24" fill="none" xmlns="http://www.w3.org/2000/svg">
<path fill-rule="evenodd" clip-rule="evenodd" d="M9.99999 1H15V3H18V5H21V14.2265C21 19.072 17.072 23 12.2265 23C8.66744 23 5.46099 20.8499 4.10985 17.5572L1.22192 10.5196L4.75078 8.76124L7.01388 11.3425V3H9.99999V1ZM12 3V11H9.99999V5H9.01388V14L7.26195 14.6592L4.26309 11.2388L3.77806 11.4804L5.96012 16.798C7.00326 19.34 9.47876 21 12.2265 21C15.9674 21 19 17.9674 19 14.2265V7H18V11H16V5H15V11H13V3H12Z" fill="black"/>
</svg>
