<svg width="24" height="24" viewBox="0 0 24 24" fill="none" xmlns="http://www.w3.org/2000/svg">
<path d="M9.54875 5.9826L12 8.51207L14.4513 5.9826C15.7209 4.67247 17.7525 4.67247 19.0222 5.9826C19.315 6.28479 19.5421 6.63043 19.7034 7H21.8149C21.5822 6.11752 21.13 5.2838 20.4584 4.59077C18.5304 2.60124 15.4788 2.4779 13.4114 4.22073C13.2748 4.33592 13.1424 4.45927 13.015 4.59077L12 5.63817L10.985 4.59077C10.8576 4.45927 10.7252 4.33592 10.5886 4.22073C8.52124 2.4779 5.46959 2.60124 3.54158 4.59077C1.48614 6.7118 1.48614 10.1507 3.54158 12.2717L12 21L14.9529 17.9529L13.5385 16.5385L12 18.1261L4.97783 10.8799C3.67406 9.53448 3.67406 7.32797 4.97783 5.9826C6.24745 4.67247 8.27912 4.67247 9.54875 5.9826Z" fill="black"/>
<path fill-rule="evenodd" clip-rule="evenodd" d="M17.8333 8H19.693L21.193 12H23V14H19.807L18.7142 11.0859L16.6667 16H14.807L13.6546 12.9269L13.118 14H10V12H11.882L12.882 10H14.693L15.7858 12.9141L17.8333 8Z" fill="black"/>
</svg>
