<svg width="24" height="24" viewBox="0 0 24 24" fill="none" xmlns="http://www.w3.org/2000/svg">
<path fill-rule="evenodd" clip-rule="evenodd" d="M12 20C16.4183 20 20 16.4183 20 12C20 7.58172 16.4183 4 12 4C7.58172 4 4 7.58172 4 12C4 16.4183 7.58172 20 12 20ZM12 22C17.5228 22 22 17.5228 22 12C22 6.47715 17.5228 2 12 2C6.47715 2 2 6.47715 2 12C2 17.5228 6.47715 22 12 22Z" fill="black"/>
<path fill-rule="evenodd" clip-rule="evenodd" d="M12.0115 8C10.9538 8 10.0626 8.72335 9.81029 9.7038L7.87341 9.20529C8.34768 7.36265 10.0192 6 12.0115 6C14.3712 6 16.2842 7.91296 16.2842 10.2727C16.2842 12.2881 14.8888 13.9776 13.0115 14.4278V15H11.0115V12.5455H12.0115C13.2667 12.5455 14.2842 11.5279 14.2842 10.2727C14.2842 9.01753 13.2667 8 12.0115 8Z" fill="black"/>
<path fill-rule="evenodd" clip-rule="evenodd" d="M11 18V16H13V18H11Z" fill="black"/>
</svg>
