<svg width="24" height="24" viewBox="0 0 24 24" fill="none" xmlns="http://www.w3.org/2000/svg">
<path fill-rule="evenodd" clip-rule="evenodd" d="M4.5456 18.0402C1.70507 14.5062 1.92456 9.32549 5.20405 6.04599C6.70904 4.541 8.61443 3.68044 10.5773 3.46432L10.5889 3.46305C12.9101 3.21049 15.263 3.11683 17.6098 3.02341C18.1086 3.00355 18.6073 2.9837 19.1052 2.96234C19.7762 2.93356 20.4461 2.90202 21.114 2.86401L20.5173 13.4043L20.5136 13.4006L20.5133 13.4041L20.5127 13.4089C20.4272 14.1796 20.2422 14.9413 19.9579 15.6734C19.5192 16.803 18.8439 17.862 17.932 18.7739C14.66 22.0458 9.49563 22.2719 5.96225 19.452L3.70712 21.7071L2.29291 20.2929L4.5456 18.0402ZM18.9916 4.96954L18.5279 13.1618L18.5257 13.1818C18.3575 14.7089 17.6897 16.1878 16.5178 17.3597C14.028 19.8495 10.1293 20.0716 7.38811 18.0261L15.3879 10.0263L16.7071 8.7071L15.2929 7.29289L13.9727 8.61305L5.97074 16.6151C3.90501 13.8726 4.12085 9.95762 6.61826 7.46021C7.79007 6.2884 9.27821 5.61955 10.8052 5.45132C13.061 5.20594 15.2932 5.11738 17.5954 5.02614C18.0575 5.00783 18.5229 4.98938 18.9916 4.96954Z" fill="black"/>
</svg>
