<svg width="24" height="24" viewBox="0 0 24 24" fill="none" xmlns="http://www.w3.org/2000/svg">
<path fill-rule="evenodd" clip-rule="evenodd" d="M13 15H7V13H13V15Z" fill="black"/>
<path fill-rule="evenodd" clip-rule="evenodd" d="M13 11H7V9H13V11Z" fill="black"/>
<path fill-rule="evenodd" clip-rule="evenodd" d="M18 4L18 16.7458C18.0012 16.9617 18.0373 17.1761 18.107 17.3805L18.1648 17.5501C18.3437 17.8212 18.651 18 19 18C19.5523 18 20 17.5523 20 17L20 7H22V17C22 18.6569 20.6569 20 19 20L2 20V4H18ZM16 6V16.7351L16 16.7503V17C16 17.3506 16.0602 17.6872 16.1707 18L4 18L4 6L16 6Z" fill="black"/>
</svg>
