<svg width="24" height="24" viewBox="0 0 24 24" fill="none" xmlns="http://www.w3.org/2000/svg">
<path d="M13 20C13 20.5523 12.5523 21 12 21C11.4477 21 11 20.5523 11 20H9C9 21.6569 10.3431 23 12 23C13.6569 23 15 21.6569 15 20H13Z" fill="black"/>
<path d="M6.07962 4.66375C4.81616 6.0784 4.04998 7.94641 4.05524 9.9929L4.0707 16L2.07068 17L2.07068 19H20.4159L18 16.5841V17H6.07328L6.05523 9.98775C6.0514 8.49553 6.59507 7.12998 7.49686 6.08099L6.07962 4.66375Z" fill="black"/>
<path d="M18 13.7557L18 9.97238C18 6.67393 15.3261 4 12.0276 4C10.9401 4 9.92071 4.2906 9.04259 4.7983L7.59148 3.34719C8.85956 2.4964 10.3855 2 12.0276 2C16.4306 2 20 5.56936 20 9.97238L20 15.7557L18 13.7557Z" fill="black"/>
<path fill-rule="evenodd" clip-rule="evenodd" d="M20.2928 21.7072L2.29285 3.70718L3.70706 2.29297L21.7071 20.293L20.2928 21.7072Z" fill="black"/>
</svg>
