<svg width="24" height="24" viewBox="0 0 24 24" fill="none" xmlns="http://www.w3.org/2000/svg">
<path d="M13 20C13 20.5523 12.5523 21 12 21C11.4477 21 11 20.5523 11 20H9C9 21.6569 10.3431 23 12 23C13.6569 23 15 21.6569 15 20H13Z" fill="black"/>
<path fill-rule="evenodd" clip-rule="evenodd" d="M20 16L20 9.97238C20 5.56936 16.4306 2 12.0276 2C7.61656 2 4.04389 5.58187 4.05524 9.9929L4.0707 16L2.07068 17L2.07068 19H22V17L20 16ZM18 17L18 9.97238C18 6.67393 15.3261 4 12.0276 4C8.72314 4 6.04673 6.6833 6.05523 9.98775L6.07328 17H18Z" fill="black"/>
</svg>
