<svg width="24" height="24" viewBox="0 0 24 24" fill="none" xmlns="http://www.w3.org/2000/svg">
<path fill-rule="evenodd" clip-rule="evenodd" d="M13 4C11.8954 4 11 4.89543 11 6V7H7V11H6C4.89543 11 4 11.8954 4 13C4 14.1046 4.89543 15 6 15H7V19H9.12602C9.57006 17.2748 11.1362 16 13 16C14.8638 16 16.4299 17.2748 16.874 19H19V16.874C17.2748 16.4299 16 14.8638 16 13C16 11.1362 17.2748 9.57006 19 9.12602V7H15V6C15 4.89543 14.1046 4 13 4ZM9.12602 5C9.57006 3.27477 11.1362 2 13 2C14.8638 2 16.4299 3.27477 16.874 5H21V11H20C18.8954 11 18 11.8954 18 13C18 14.1046 18.8954 15 20 15H21V21H15V20C15 18.8954 14.1046 18 13 18C11.8954 18 11 18.8954 11 20V21H5V16.874C3.27477 16.4299 2 14.8638 2 13C2 11.1362 3.27477 9.57006 5 9.12602V5H9.12602Z" fill="black"/>
</svg>
