<svg width="24" height="24" viewBox="0 0 24 24" fill="none" xmlns="http://www.w3.org/2000/svg">
<path fill-rule="evenodd" clip-rule="evenodd" d="M12 14C13.1046 14 14 13.1046 14 12C14 10.8954 13.1046 10 12 10C10.8954 10 10 10.8954 10 12C10 13.1046 10.8954 14 12 14ZM16 12C16 14.2091 14.2091 16 12 16C9.79086 16 8 14.2091 8 12C8 9.79086 9.79086 8 12 8C14.2091 8 16 9.79086 16 12Z" fill="black"/>
<path fill-rule="evenodd" clip-rule="evenodd" d="M12 4.3094L5.33972 8.1547V15.8453L12 19.6906L18.6602 15.8453V8.1547L12 4.3094ZM20.6602 7L12 2L3.33972 7V17L12 22L20.6602 17V7Z" fill="black"/>
</svg>
