<svg width="24" height="24" viewBox="0 0 24 24" fill="none" xmlns="http://www.w3.org/2000/svg">
<path fill-rule="evenodd" clip-rule="evenodd" d="M12 14C13.1046 14 14 13.1046 14 12C14 10.8954 13.1046 10 12 10C10.8954 10 10 10.8954 10 12C10 13.1046 10.8954 14 12 14ZM16 12C16 14.2091 14.2091 16 12 16C9.79086 16 8 14.2091 8 12C8 9.79086 9.79086 8 12 8C14.2091 8 16 9.79086 16 12Z" fill="black"/>
<path d="M9.34113 5.52235L9.73239 5.36155L9.88949 4.9688L10.677 3H13.3229L14.1105 4.9688L14.2676 5.36155L14.6588 5.52235C15.2415 5.76182 15.7852 6.0779 16.2773 6.45835L16.6124 6.7174L17.0316 6.65701L19.1327 6.35428L20.4557 8.64572L19.1434 10.3134L18.8822 10.6454L18.9381 11.0641C18.9789 11.3698 19 11.6822 19 12C19 12.3178 18.9789 12.6302 18.9381 12.9359L18.8822 13.3546L19.1434 13.6866L20.4557 15.3543L19.1327 17.6457L17.0316 17.343L16.6124 17.2826L16.2773 17.5416C15.7852 17.9221 15.2415 18.2382 14.6588 18.4777L14.2676 18.6384L14.1105 19.0312L13.3229 21H10.677L9.88949 19.0312L9.73239 18.6384L9.34113 18.4777C8.75843 18.2382 8.21473 17.9221 7.72265 17.5416L7.38759 17.2826L6.96839 17.343L4.86723 17.6457L3.54426 15.3543L4.85654 13.6866L5.11775 13.3546L5.06189 12.9359C5.0211 12.6302 4.99998 12.3178 4.99998 12C4.99998 11.6822 5.0211 11.3698 5.06189 11.0641L5.11775 10.6454L4.85654 10.3134L3.54426 8.64572L4.86723 6.35428L6.96839 6.65701L7.38759 6.7174L7.72265 6.45835C8.21473 6.0779 8.75843 5.76182 9.34113 5.52235Z" stroke="black" stroke-width="2"/>
</svg>
