<svg width="24" height="24" viewBox="0 0 24 24" fill="none" xmlns="http://www.w3.org/2000/svg">
<path fill-rule="evenodd" clip-rule="evenodd" d="M16 17C13.581 17 11.5633 15.2822 11.1 13H5.91217L7.7089 14.7967L6.29468 16.2109L2.08569 12.0019L6.29469 7.79296L7.7089 9.20718L5.91607 11H11.1C11.5633 8.71776 13.581 7 16 7C18.7614 7 21 9.23858 21 12C21 14.7614 18.7614 17 16 17ZM13 12C13 13.6569 14.3431 15 16 15C17.6568 15 19 13.6569 19 12C19 10.3431 17.6568 9 16 9C14.3431 9 13 10.3431 13 12Z" fill="black"/>
</svg>
