<svg width="24" height="24" viewBox="0 0 24 24" fill="none" xmlns="http://www.w3.org/2000/svg">
<path fill-rule="evenodd" clip-rule="evenodd" d="M13 5.91419L14.7929 7.70707L16.2071 6.29285L11.9999 2.08569L7.79276 6.29285L9.20697 7.70707L11 5.91404V11.1001C8.71776 11.5633 7 13.5811 7 16C7 18.7615 9.23858 21 12 21C14.7614 21 17 18.7615 17 16C17 13.5811 15.2822 11.5633 13 11.1001V5.91419ZM12 13C13.6569 13 15 14.3432 15 16C15 17.6569 13.6569 19 12 19C10.3431 19 9 17.6569 9 16C9 14.3432 10.3431 13 12 13Z" fill="black"/>
</svg>
