<svg width="24" height="24" viewBox="0 0 24 24" fill="none" xmlns="http://www.w3.org/2000/svg">
<path fill-rule="evenodd" clip-rule="evenodd" d="M17 8C17 10.419 15.2822 12.4367 13 12.9V18.0878L14.7948 16.293L16.209 17.7072L12.0019 21.9143L7.79472 17.7072L9.20894 16.293L11 18.084V12.9C8.71776 12.4367 7 10.419 7 8C7 5.23858 9.23858 3 12 3C14.7614 3 17 5.23858 17 8ZM12 11C13.6569 11 15 9.65685 15 8C15 6.34315 13.6569 5 12 5C10.3431 5 9 6.34315 9 8C9 9.65685 10.3431 11 12 11Z" fill="black"/>
</svg>
