<svg width="24" height="24" viewBox="0 0 24 24" fill="none" xmlns="http://www.w3.org/2000/svg">
<path fill-rule="evenodd" clip-rule="evenodd" d="M8 7C10.419 7 12.4367 8.71776 12.9 11H18.0839L16.2929 9.20898L17.7071 7.79477L21.9143 12.0019L17.7091 16.2072L16.2948 14.7929L18.0878 13H12.9C12.4367 15.2822 10.419 17 8 17C5.23858 17 3 14.7614 3 12C3 9.23858 5.23858 7 8 7ZM11 12C11 13.6569 9.65685 15 8 15C6.34315 15 5 13.6569 5 12C5 10.3431 6.34315 9 8 9C9.65685 9 11 10.3431 11 12Z" fill="black"/>
</svg>
