<svg width="24" height="24" viewBox="0 0 24 24" fill="none" xmlns="http://www.w3.org/2000/svg">
<path d="M4 12C4 7.58172 7.58172 4 12 4C14.5171 4 16.7288 5.1635 18.1822 6.99321L16.5029 6.98829L16.4971 8.98828L21.5 9.00293L21.5 4H19.5L19.5 5.44947C17.6875 3.34038 15.023 2 12 2C6.47715 2 2 6.47715 2 12H4Z" fill="black"/>
<path d="M20 12C20 16.4183 16.4183 20 12 20C9.48295 20 7.27119 18.8365 5.81776 17.0068L7.49707 17.0117L7.50293 15.0117L2.5 14.9971L2.5 20H4.5L4.5 18.5505C6.31255 20.6596 8.97702 22 12 22C17.5228 22 22 17.5228 22 12H20Z" fill="black"/>
</svg>
