<svg width="24" height="24" viewBox="0 0 24 24" fill="none" xmlns="http://www.w3.org/2000/svg">
<path fill-rule="evenodd" clip-rule="evenodd" d="M4 21V11.8293C2.83481 11.4175 2 10.3062 2 9C2 7.69378 2.83481 6.58254 4 6.17071V3H6V6.17071C7.16519 6.58254 8 7.69378 8 9C8 10.3062 7.16519 11.4175 6 11.8293V21H4ZM6 9C6 9.55228 5.55228 10 5 10C4.44772 10 4 9.55228 4 9C4 8.44772 4.44772 8 5 8C5.55228 8 6 8.44772 6 9Z" fill="black"/>
<path fill-rule="evenodd" clip-rule="evenodd" d="M11 21V17.8293C9.83481 17.4175 9 16.3062 9 15C9 13.6938 9.83481 12.5825 11 12.1707V3H13V12.1707C14.1652 12.5825 15 13.6938 15 15C15 16.3062 14.1652 17.4175 13 17.8293V21H11ZM13 15C13 15.5523 12.5523 16 12 16C11.4477 16 11 15.5523 11 15C11 14.4477 11.4477 14 12 14C12.5523 14 13 14.4477 13 15Z" fill="black"/>
<path fill-rule="evenodd" clip-rule="evenodd" d="M18 21V11.8293C16.8348 11.4175 16 10.3062 16 9C16 7.69378 16.8348 6.58254 18 6.17071V3H20V6.17071C21.1652 6.58254 22 7.69378 22 9C22 10.3062 21.1652 11.4175 20 11.8293V21H18ZM20 9C20 9.55228 19.5523 10 19 10C18.4477 10 18 9.55228 18 9C18 8.44772 18.4477 8 19 8C19.5523 8 20 8.44772 20 9Z" fill="black"/>
</svg>
