<svg width="24" height="24" viewBox="0 0 24 24" fill="none" xmlns="http://www.w3.org/2000/svg">
<path fill-rule="evenodd" clip-rule="evenodd" d="M12.874 16C12.4299 14.2748 10.8638 13 9 13C7.13616 13 5.57006 14.2748 5.12602 16H3V18H5.12602C5.57006 19.7252 7.13616 21 9 21C10.8638 21 12.4299 19.7252 12.874 18H21V16H12.874ZM11 17C11 18.1046 10.1046 19 9 19C7.89543 19 7 18.1046 7 17C7 15.8954 7.89543 15 9 15C10.1046 15 11 15.8954 11 17Z" fill="black"/>
<path fill-rule="evenodd" clip-rule="evenodd" d="M18.874 6C18.4299 4.27477 16.8638 3 15 3C13.1362 3 11.5701 4.27477 11.126 6H3V8H11.126C11.5701 9.72523 13.1362 11 15 11C16.8638 11 18.4299 9.72523 18.874 8H21V6H18.874ZM17 7C17 8.10457 16.1046 9 15 9C13.8954 9 13 8.10457 13 7C13 5.89543 13.8954 5 15 5C16.1046 5 17 5.89543 17 7Z" fill="black"/>
</svg>
