<svg width="24" height="24" viewBox="0 0 24 24" fill="none" xmlns="http://www.w3.org/2000/svg">
<path d="M6 15C6 12.7909 7.79086 11 10 11V9C6.68629 9 4 11.6863 4 15C4 18.3137 6.68629 21 10 21C12.973 21 15.441 18.8377 15.917 16H13.874C13.4299 17.7252 11.8638 19 10 19C7.79086 19 6 17.2091 6 15Z" fill="black"/>
<path fill-rule="evenodd" clip-rule="evenodd" d="M12 6C13.1046 6 14 5.10457 14 4C14 2.89543 13.1046 2 12 2C10.8954 2 10 2.89543 10 4C10 5.10457 10.8954 6 12 6Z" fill="black"/>
<path d="M13 7H11V15H16.323L18.0715 19.3714L19.9285 18.6286L17.677 13H13V11H17V9H13V7Z" fill="black"/>
</svg>
