<svg width="24" height="24" viewBox="0 0 24 24" fill="none" xmlns="http://www.w3.org/2000/svg">
<path d="M9 11V13H11V11H13V9H11V7H9V9H7V11H9Z" fill="black"/>
<path fill-rule="evenodd" clip-rule="evenodd" d="M16.3199 14.9056C17.3729 13.5509 18 11.8487 18 10C18 5.58172 14.4183 2 10 2C5.58172 2 2 5.58172 2 10C2 14.4183 5.58172 18 10 18C11.8487 18 13.551 17.3729 14.9057 16.3198L20.2929 21.7071L21.7071 20.2928L16.3199 14.9056ZM16 10C16 13.3137 13.3137 16 10 16C6.68629 16 4 13.3137 4 10C4 6.68629 6.68629 4 10 4C13.3137 4 16 6.68629 16 10Z" fill="black"/>
</svg>
