<svg width="24" height="24" viewBox="0 0 24 24" fill="none" xmlns="http://www.w3.org/2000/svg">
<path fill-rule="evenodd" clip-rule="evenodd" d="M4.18021 5L4.02364 5.78288C4.02071 5.79609 4.01805 5.8094 4.01565 5.82281L1.99998 15.901L2.00002 21H11V14H13V21H22L22 15.901L19.9839 5.82046C19.9818 5.80864 19.9794 5.79689 19.9769 5.78522L19.8198 5H4.18021ZM13 12V7H11V12H13ZM3.99999 16.099L5.81982 7H9.00002V19H4.00001L3.99999 16.099ZM15 19V7H18.1802L20 16.099L20 19H15Z" fill="black"/>
<path fill-rule="evenodd" clip-rule="evenodd" d="M10 4H5V2H10V4Z" fill="black"/>
<path fill-rule="evenodd" clip-rule="evenodd" d="M19 4H14V2H19V4Z" fill="black"/>
</svg>
