<svg width="24" height="24" viewBox="0 0 24 24" fill="none" xmlns="http://www.w3.org/2000/svg">
<path fill-rule="evenodd" clip-rule="evenodd" d="M2 10.5C2 8.93722 2.79663 7.56051 4.00596 6.7538C4.13431 4.10674 6.32113 2 9 2C11.6789 2 13.8657 4.10674 13.994 6.7538C15.2034 7.56051 16 8.93722 16 10.5C16 12.9853 13.9853 15 11.5 15C10.974 15 10.4692 14.9098 10 14.7439V20H12V16H21V20H22V22H2V20H8V14.7439C7.53083 14.9098 7.02595 15 6.5 15C4.01472 15 2 12.9853 2 10.5ZM11.9964 6.85066L12.0452 7.85794L12.8842 8.41758C13.5611 8.86912 14 9.63372 14 10.5C14 11.8807 12.8807 13 11.5 13C10.9832 13 10.5087 12.8454 10.1125 12.5802L9 11.8355L7.88748 12.5802C7.49135 12.8454 7.01676 13 6.5 13C5.11929 13 4 11.8807 4 10.5C4 9.63372 4.43894 8.86912 5.11583 8.41758L5.95477 7.85794L6.00361 6.85066C6.08054 5.26405 7.39325 4 9 4C10.6067 4 11.9195 5.26405 11.9964 6.85066ZM19 18V20H14V18H19Z" fill="black"/>
</svg>
