<svg width="24" height="24" viewBox="0 0 24 24" fill="none" xmlns="http://www.w3.org/2000/svg">
<path fill-rule="evenodd" clip-rule="evenodd" d="M9 8C10.1046 8 11 6.88071 11 5.5C11 4.11929 10.1046 3 9 3C7.89543 3 7 4.11929 7 5.5C7 6.88071 7.89543 8 9 8Z" fill="black"/>
<path fill-rule="evenodd" clip-rule="evenodd" d="M15 8C16.1046 8 17 6.88071 17 5.5C17 4.11929 16.1046 3 15 3C13.8954 3 13 4.11929 13 5.5C13 6.88071 13.8954 8 15 8Z" fill="black"/>
<path fill-rule="evenodd" clip-rule="evenodd" d="M4 11C5.10457 11 6 9.88071 6 8.5C6 7.11929 5.10457 6 4 6C2.89543 6 2 7.11929 2 8.5C2 9.88071 2.89543 11 4 11Z" fill="black"/>
<path fill-rule="evenodd" clip-rule="evenodd" d="M20 11C21.1046 11 22 9.88071 22 8.5C22 7.11929 21.1046 6 20 6C18.8954 6 18 7.11929 18 8.5C18 9.88071 18.8954 11 20 11Z" fill="black"/>
<path fill-rule="evenodd" clip-rule="evenodd" d="M12 17.8869L12.6454 18.107C15.2383 18.991 16.4984 18.5766 17.0485 18.1893C17.6322 17.7784 18 16.9918 18 16C18 14.8087 17.3577 13.5792 16.1677 12.5853C14.976 11.59 13.4212 11 12 11C10.5788 11 9.02399 11.59 7.83229 12.5853C6.64229 13.5792 6 14.8087 6 16C6 16.9918 6.36784 17.7784 6.95153 18.1893C7.50162 18.5766 8.76169 18.991 11.3546 18.107L12 17.8869ZM12 20C6.13401 22 4 18.866 4 16C4 12.134 8.13401 9 12 9C15.866 9 20 12.134 20 16C20 18.866 17.866 22 12 20Z" fill="black"/>
</svg>
