<svg width="24" height="24" viewBox="0 0 24 24" fill="none" xmlns="http://www.w3.org/2000/svg">
<path fill-rule="evenodd" clip-rule="evenodd" d="M22 20H2V18H22V20Z" fill="black"/>
<path fill-rule="evenodd" clip-rule="evenodd" d="M13 5.04938C17.7244 5.51844 21.4816 9.27558 21.9506 14C21.9833 14.3289 22 14.6625 22 15C22 15.3375 21.9833 15.6711 21.9506 16H2.04938C2.01672 15.6711 2 15.3375 2 15C2 14.6625 2.01672 14.3289 2.04938 14C2.51844 9.27558 6.27558 5.51844 11 5.04938V3H13V5.04938ZM12 7C16.0796 7 19.446 10.0537 19.9381 14H4.06189C4.55399 10.0537 7.92038 7 12 7Z" fill="black"/>
</svg>
