<svg width="24" height="24" viewBox="0 0 24 24" fill="none" xmlns="http://www.w3.org/2000/svg">
<path fill-rule="evenodd" clip-rule="evenodd" d="M11.9999 2L10.8207 3.16082C8.41653 5.5274 7.33268 8.72344 7.56912 11.8379C6.00847 11.045 4.21633 10.6457 2.32441 10.7719L1.92537 10.7986L1.89876 11.1979C1.53084 16.7203 5.63128 21.3932 10.9308 21.945L10.9312 21.9503L11.1196 21.9629C11.3701 21.9842 11.6232 21.9964 11.8785 21.999C12.2304 22.0037 12.5783 21.9904 12.9213 21.9598L13.0693 21.9499L13.0696 21.9454C18.3692 21.3937 22.4697 16.7208 22.1017 11.1983L22.0751 10.799L21.6761 10.7724C19.7839 10.6461 17.9915 11.0455 16.4307 11.8387C16.6673 8.72398 15.5835 5.5276 13.1792 3.16082L11.9999 2ZM13.0762 19.9298C16.747 19.4469 19.6554 16.4946 20.0736 12.8019C16.5191 13.205 13.6511 15.9198 13.0135 19.4015C13.039 19.5762 13.0599 19.7524 13.0762 19.9298ZM12.0004 16.2432C12.543 15.1911 13.2648 14.2458 14.125 13.4478C14.9578 10.4898 14.2494 7.18848 11.9999 4.81422C9.75078 7.18811 9.0423 10.4887 9.8745 13.4464C10.7353 14.2447 11.4575 15.1905 12.0004 16.2432ZM10.987 19.4014C10.9616 19.576 10.9407 19.7521 10.9244 19.9294C7.2536 19.4465 4.34515 16.4942 3.92695 12.8015C7.48151 13.2046 10.3496 15.9196 10.987 19.4014Z" fill="black"/>
</svg>
