<svg width="24" height="24" viewBox="0 0 24 24" fill="none" xmlns="http://www.w3.org/2000/svg">
<path fill-rule="evenodd" clip-rule="evenodd" d="M2 5H22V10C20.8954 10 20 10.8954 20 12C20 13.1046 20.8954 14 22 14V19H2V14C3.10457 14 4 13.1046 4 12C4 10.8954 3.10457 10 2 10V5ZM4 8.53513C5.1956 9.22675 6 10.5194 6 12C6 13.4806 5.1956 14.7733 4 15.4649V17H20V15.4649C18.8044 14.7733 18 13.4806 18 12C18 10.5194 18.8044 9.22675 20 8.53513V7H4V8.53513Z" fill="black"/>
<path fill-rule="evenodd" clip-rule="evenodd" d="M11 15V9H13V15H11Z" fill="black"/>
</svg>
