<svg width="24" height="24" viewBox="0 0 24 24" fill="none" xmlns="http://www.w3.org/2000/svg">
<path fill-rule="evenodd" clip-rule="evenodd" d="M15 5H9C7.13616 5 5.57006 6.27477 5.12602 8H18.874C18.4299 6.27477 16.8638 5 15 5ZM20.917 8C20.441 5.16229 17.973 3 15 3H9C6.027 3 3.55904 5.16229 3.08296 8C3.0284 8.32521 3 8.65929 3 9V10H21V9C21 8.65929 20.9716 8.32521 20.917 8Z" fill="black"/>
<path fill-rule="evenodd" clip-rule="evenodd" d="M19 17H5V19H19V17ZM3 15V21H21V15H3Z" fill="black"/>
<path fill-rule="evenodd" clip-rule="evenodd" d="M9.98178 11.8598C9.73105 12.1607 9.26895 12.1607 9.01822 11.8598L8.96105 11.7912C7.94405 10.5708 6.09868 10.4871 4.97537 11.6104L4.73223 11.8535C4.63846 11.9473 4.51129 12 4.37868 12H3V14H4.37868C5.04172 14 5.6776 13.7366 6.14645 13.2677L6.38958 13.0246C6.68129 12.7329 7.16051 12.7546 7.42461 13.0716L7.48178 13.1402C8.5321 14.4005 10.4679 14.4005 11.5182 13.1402C11.7689 12.8393 12.2311 12.8393 12.4818 13.1402C13.5321 14.4005 15.4679 14.4005 16.5182 13.1402L16.5754 13.0716C16.8395 12.7546 17.3187 12.7329 17.6104 13.0246L17.8536 13.2677C18.3224 13.7366 18.9583 14 19.6213 14H21V12H19.6213C19.4887 12 19.3615 11.9473 19.2678 11.8535L19.0246 11.6104C17.9013 10.4871 16.0559 10.5708 15.0389 11.7912L14.9818 11.8598C14.7311 12.1607 14.2689 12.1607 14.0182 11.8598C12.9679 10.5994 11.0321 10.5994 9.98178 11.8598Z" fill="black"/>
</svg>
