<svg width="24" height="24" viewBox="0 0 24 24" fill="none" xmlns="http://www.w3.org/2000/svg">
<path fill-rule="evenodd" clip-rule="evenodd" d="M10.7372 3.60471C10.5683 3.85075 10.4695 4.14862 10.4695 4.46957C10.4695 5.3148 11.1547 6 12 6C12.4833 6 12.9143 5.77597 13.1947 5.42609C13.195 5.42572 13.1953 5.42535 13.1956 5.42498C13.4051 5.16314 13.5304 4.83098 13.5304 4.46957C13.5304 4.1487 13.4317 3.8509 13.2629 3.60489C13.2416 3.57379 13.2191 3.54353 13.1956 3.51415C13.1954 3.51392 13.1953 3.51369 13.1951 3.51346C13.195 3.51332 13.1949 3.51318 13.1947 3.51304H13.1956C13.1956 3.51304 13.1955 3.51289 13.1953 3.5126C13.1952 3.51241 13.195 3.51216 13.1947 3.51186C13.1649 3.47202 12.3908 2.43773 12 2C11.8152 2.20709 11.5432 2.54969 11.3056 2.8564C11.0335 3.20746 10.8065 3.5115 10.8065 3.5115L10.8052 3.51304C10.7814 3.54271 10.7587 3.57329 10.7372 3.60471Z" fill="black"/>
<path fill-rule="evenodd" clip-rule="evenodd" d="M11 10V7H13V10H22V22H2V10H11ZM20 12H4V15H4.05573C4.52146 15 4.9808 14.8916 5.39737 14.6833L7.04378 13.8601L7.95651 14.4077C8.90656 14.9777 10.0934 14.9777 11.0435 14.4077L12 13.8338L12.9565 14.4077C13.9066 14.9777 15.0934 14.9777 16.0435 14.4077L16.9562 13.8601L18.6026 14.6833C19.0192 14.8916 19.4785 15 19.9443 15H20V12ZM20 17H19.9443C19.168 17 18.4025 16.8193 17.7082 16.4721L17.0437 16.1399C15.4893 17.0584 13.5613 17.067 12 16.1654C10.4387 17.067 8.51074 17.0584 6.95634 16.1399L6.2918 16.4721C5.59752 16.8193 4.83195 17 4.05573 17H4V20H20V17Z" fill="black"/>
</svg>
