<svg width="24" height="24" viewBox="0 0 24 24" fill="none" xmlns="http://www.w3.org/2000/svg">
<path fill-rule="evenodd" clip-rule="evenodd" d="M19 17V22H3V7H19V9C21.2091 9 23 10.7909 23 13C23 15.2091 21.2091 17 19 17ZM5 9H17V20H5V9ZM19 15C20.1046 15 21 14.1046 21 13C21 11.8954 20.1046 11 19 11V15Z" fill="black"/>
<path fill-rule="evenodd" clip-rule="evenodd" d="M6 5V2H8V5H6Z" fill="black"/>
<path fill-rule="evenodd" clip-rule="evenodd" d="M10 5V2H12V5H10Z" fill="black"/>
<path fill-rule="evenodd" clip-rule="evenodd" d="M14 5V2H16V5H14Z" fill="black"/>
</svg>
