<svg width="24" height="24" viewBox="0 0 24 24" fill="none" xmlns="http://www.w3.org/2000/svg">
<path fill-rule="evenodd" clip-rule="evenodd" d="M11.9476 5.36986L11.9961 6.00005L12 6.00005C12.042 6.00005 12.0839 6.00037 12.1258 6.00101C12.5695 4.27529 14.1358 3.00005 16 3.00005V5.00005C15.1466 5.00005 14.4181 5.53451 14.1309 6.28696C17.5147 7.21973 20 10.3197 20 14C20 18.4183 16.4183 22 12 22C7.58172 22 4 18.4183 4 14C4 10.5687 6.16034 7.64187 9.19511 6.50556C8.23032 6.03275 7.51668 5.13007 7.30157 4.04492C7.2747 3.90936 7.25561 3.77095 7.24478 3.63017L7.12132 2.02515L8.72635 2.14861C8.86712 2.15944 9.00553 2.17853 9.14109 2.2054C10.5275 2.48021 11.616 3.56875 11.8908 4.95512C11.9177 5.09068 11.9368 5.22909 11.9476 5.36986ZM12 8.00005C8.68629 8.00005 6 10.6863 6 14C6 17.3138 8.68629 20 12 20C15.3137 20 18 17.3138 18 14C18 10.6863 15.3137 8.00005 12 8.00005Z" fill="black"/>
</svg>
