<svg width="24" height="24" viewBox="0 0 24 24" fill="none" xmlns="http://www.w3.org/2000/svg">
<path fill-rule="evenodd" clip-rule="evenodd" d="M3 4.09895C3.6004 3.80285 4.21394 3.53721 4.83822 3.30258C7.1205 2.44479 9.54636 2.0015 11.9987 2C14.451 1.99851 16.8775 2.43885 19.1608 3.29386C19.7854 3.52773 20.3992 3.79262 21 4.08799L12.0111 22L3 4.09895ZM9.66311 12.8874L7.87908 9.34339C8.19881 9.12663 8.58462 9 9 9C10.1046 9 11 9.89543 11 11C11 11.8721 10.4418 12.6139 9.66311 12.8874ZM10.5663 14.6817C11.997 14.0723 13 12.6533 13 11C13 8.79086 11.2091 7 9 7C8.26146 7 7.56966 7.20016 6.9759 7.54918L5.74321 5.10038C7.74216 4.37567 9.85963 4.00131 11.9999 4C14.1402 3.9987 16.2582 4.37049 18.2581 5.09278L12.0084 17.5464L10.5663 14.6817Z" fill="black"/>
<circle cx="14.3754" cy="6.71841" r="1" transform="rotate(45 14.3754 6.71841)" fill="black"/>
</svg>
