<svg width="24" height="24" viewBox="0 0 24 24" fill="none" xmlns="http://www.w3.org/2000/svg">
<path d="M8 14C7.44772 14 7 13.5523 7 13C7 12.4477 7.44772 12 8 12C8.55228 12 9 12.4477 9 13C9 13.5523 8.55228 14 8 14V14Z" fill="black"/>
<path d="M16 14C15.4477 14 15 13.5523 15 13C15 12.4477 15.4477 12 16 12C16.5523 12 17 12.4477 17 13C17 13.5523 16.5523 14 16 14V14Z" fill="black"/>
<path fill-rule="evenodd" clip-rule="evenodd" d="M7.98751 7.83756L6.36828 5.00391L4.63179 5.99618L6.24568 8.82049C3.93395 10.4498 2.34383 13.0343 2.04938 16C2.01672 16.3289 2 16.6625 2 17C2 17.3375 2.01672 17.6711 2.04938 18H21.9506C21.9833 17.6711 22 17.3375 22 17C22 16.6625 21.9833 16.3289 21.9506 16C21.6562 13.0343 20.0661 10.4498 17.7543 8.8205L19.3682 5.99618L17.6318 5.00391L16.0125 7.83757C14.7843 7.29892 13.4271 7 12 7C10.573 7 9.21572 7.29892 7.98751 7.83756ZM12 9C16.0796 9 19.446 12.0537 19.9381 16H4.06189C4.55399 12.0537 7.92038 9 12 9Z" fill="black"/>
</svg>
