<svg width="24" height="24" viewBox="0 0 24 24" fill="none" xmlns="http://www.w3.org/2000/svg">
<path fill-rule="evenodd" clip-rule="evenodd" d="M18.245 7.435C18.7783 7.73007 19.3172 8.16869 19.7621 8.82002L19.7537 8.82515C19.7163 8.84788 19.5923 8.92325 19.4214 9.05277C18.8063 9.51888 17.5833 10.6863 17.6007 12.6255C17.6283 15.5969 20.1609 16.6219 20.2808 16.6704L20.285 16.6721L20.2816 16.683C20.2365 16.8313 19.8341 18.1529 18.9009 19.5167C18.0673 20.7351 17.2022 21.9489 15.8393 21.9741C15.1851 21.9861 14.7478 21.7969 14.293 21.6002C13.8169 21.3942 13.3216 21.18 12.5385 21.18C11.7187 21.18 11.2007 21.4006 10.7017 21.6131C10.269 21.7974 9.85048 21.9756 9.26177 21.9988C7.94625 22.0486 6.94445 20.6813 6.10397 19.4674C4.38647 16.9843 3.07394 12.4509 4.83633 9.39069C5.71185 7.871 7.27647 6.90867 8.97472 6.88399C9.70715 6.87002 10.4163 7.15128 11.037 7.39747C11.5111 7.5855 11.9336 7.75308 12.2755 7.75308C12.582 7.75308 12.993 7.59099 13.4722 7.40195C14.2271 7.1042 15.1514 6.73959 16.1042 6.83614C16.5094 6.85301 17.3697 6.95063 18.245 7.435ZM15.6008 12.6434C15.5867 11.0749 16.1317 9.84525 16.7546 8.96375C16.457 8.87128 16.1919 8.84152 16.021 8.83441L15.9616 8.83194L15.9025 8.82595C15.6108 8.79639 15.22 8.877 14.604 9.10803C14.5347 9.13406 14.4182 9.17962 14.287 9.23098C14.0711 9.31547 13.8151 9.41564 13.6625 9.47032C13.3767 9.57277 12.8498 9.75308 12.2755 9.75308C11.7414 9.75308 11.2647 9.60933 10.9651 9.50757C10.7327 9.42863 10.4684 9.32373 10.258 9.24024C10.1954 9.21538 10.1375 9.19242 10.0867 9.17261C9.5274 8.95447 9.22655 8.87955 9.01286 8.88363L9.00378 8.8838C8.05623 8.89757 7.11668 9.43919 6.56946 10.3888C6.00624 11.367 5.85912 12.7371 6.13472 14.2976C6.40749 15.8422 7.0549 17.3261 7.74831 18.3289C8.1796 18.9518 8.52967 19.4265 8.87243 19.7477C9.06432 19.9276 9.17372 19.9835 9.21327 19.9989C9.40351 19.9877 9.52058 19.9409 10.0226 19.7286C10.4952 19.5288 11.1339 19.2758 12.019 19.2014C12.1835 19.1876 12.3565 19.18 12.5385 19.18C13.7268 19.18 14.5266 19.5223 15.0543 19.7504C15.1965 19.8119 15.3034 19.857 15.3888 19.8899L15.8024 19.9744L15.805 19.9744C15.8373 19.974 15.9451 19.9727 16.2027 19.7319C16.5072 19.4472 16.8145 19.0242 17.2504 18.3872C17.4714 18.0642 17.6561 17.7433 17.8078 17.4479C16.7678 16.5545 15.623 15.0301 15.6008 12.6434Z" fill="black"/>
<path fill-rule="evenodd" clip-rule="evenodd" d="M14.1169 2.70458C14.6246 2.37441 15.1961 2.13673 15.7353 2.04258C15.8673 2.01954 15.9974 2.00509 16.1242 2C16.1421 2.1637 16.1483 2.32752 16.1439 2.49053C16.1286 3.04904 15.988 3.59808 15.7626 4.10059C15.5832 4.50054 15.3502 4.87101 15.0839 5.1933C14.8147 5.5194 14.4789 5.81742 14.1036 6.05558C13.8417 6.22179 13.5605 6.35885 13.2693 6.45595C12.8953 6.58066 12.5047 6.63946 12.117 6.60946C12.0593 6.17609 12.1041 5.73561 12.2172 5.31491C12.2836 5.06766 12.3736 4.82723 12.4802 4.59908C12.6725 4.18728 12.9188 3.81549 13.178 3.5158C13.4378 3.21179 13.7617 2.93555 14.1169 2.70458Z" fill="black"/>
</svg>
