<svg width="24" height="24" viewBox="0 0 24 24" fill="none" xmlns="http://www.w3.org/2000/svg">
<path d="M11 11.0001V18.0001H13V11.0001H11Z" fill="black"/>
<path fill-rule="evenodd" clip-rule="evenodd" d="M10.2949 3.38072L9.20711 2.29297L7.79289 3.70718L8.75145 4.66574C8.27855 5.32268 8 6.12887 8 7.00012V7.43104C7.43269 7.88242 6.93006 8.4247 6.50615 9.03757L5.0145 8.14258L3.9855 9.85756L5.5769 10.8124C5.31599 11.4997 5.13772 12.2348 5.05421 13.0001H3V15.0001H5.0551C5.12902 15.6679 5.27594 16.3154 5.48768 16.9294L3.87531 18.2193L5.1247 19.781L6.38322 18.7742C7.63599 20.7077 9.64309 22.0001 12 22.0001C14.3569 22.0001 16.364 20.7077 17.6168 18.7742L18.8753 19.781L20.1247 18.2193L18.5123 16.9294C18.7241 16.3154 18.871 15.6679 18.9449 15.0001H21V13.0001H18.9458C18.8726 12.329 18.7264 11.6811 18.5156 11.0682L20.1247 9.78098L18.8753 8.21924L17.6191 9.22421C17.1702 8.53447 16.6242 7.92772 16 7.43104V7.00012C16 6.12889 15.7215 5.32272 15.2486 4.6658L16.2071 3.70724L14.7929 2.29303L13.7052 3.38075C13.1879 3.13663 12.6099 3.00012 12 3.00012C11.3901 3.00012 10.8121 3.13662 10.2949 3.38072ZM14.7597 9.00012H9.2403C7.91687 10.0568 7 11.8771 7 14.0001C7 17.464 9.37764 20.0001 12 20.0001C14.6224 20.0001 17 17.464 17 14.0001C17 11.8771 16.0831 10.0568 14.7597 9.00012ZM10 7.00012H14C14 5.89555 13.1046 5.00012 12 5.00012C10.8954 5.00012 10 5.89555 10 7.00012Z" fill="black"/>
</svg>
