<svg width="24" height="24" viewBox="0 0 24 24" fill="none" xmlns="http://www.w3.org/2000/svg">
<path fill-rule="evenodd" clip-rule="evenodd" d="M12.0309 10.6168L12.3286 9.50231C12.6865 8.16202 12.338 6.68131 11.2929 5.63617C10.576 4.91931 9.65377 4.53115 8.71485 4.47234L10.5858 6.34329L6.34316 10.5859L4.47221 8.71498C4.53102 9.6539 4.91918 10.5762 5.63604 11.293C6.68118 12.3382 8.16189 12.6866 9.50218 12.3287L10.6167 12.0311L17.6569 19.0712L19.0711 17.657L12.0309 10.6168ZM2.6681 6.91087C2.84914 6.23294 3.1509 5.58054 3.57338 4.98773L6.34316 7.7575L7.75737 6.34329L4.9876 3.57351C5.58041 3.15103 6.23281 2.84927 6.91074 2.66823C8.91244 2.13367 11.1367 2.65158 12.7071 4.22196C14.2775 5.79233 14.7954 8.01663 14.2608 10.0183L21.8995 17.657L17.6569 21.8996L10.0182 14.261C8.0165 14.7955 5.79221 14.2776 4.22183 12.7072C2.65145 11.1369 2.13354 8.91257 2.6681 6.91087Z" fill="black"/>
</svg>
