<svg width="24" height="24" viewBox="0 0 24 24" fill="none" xmlns="http://www.w3.org/2000/svg">
<path fill-rule="evenodd" clip-rule="evenodd" d="M18.0319 16.6177C19.2635 15.078 20 13.125 20 11C20 6.02944 15.9706 2 11 2C6.02944 2 2 6.02944 2 11C2 15.9706 6.02944 20 11 20C13.125 20 15.078 19.2635 16.6177 18.0319L20.2929 21.7071L21.7071 20.2928L18.0319 16.6177ZM18 11C18 14.866 14.866 18 11 18C7.13401 18 4 14.866 4 11C4 7.13401 7.13401 4 11 4C14.866 4 18 7.13401 18 11Z" fill="black"/>
<path fill-rule="evenodd" clip-rule="evenodd" d="M13.2071 14.207L11.7929 12.7928L13.5858 10.9999L11.7929 9.20704L13.2071 7.79283L16.4142 10.9999L13.2071 14.207Z" fill="black"/>
<path fill-rule="evenodd" clip-rule="evenodd" d="M8.79292 14.207L10.2071 12.7928L8.41424 11L10.2071 9.20725L8.79286 7.79302L5.58577 11L8.79292 14.207Z" fill="black"/>
</svg>
