<svg width="24" height="24" viewBox="0 0 24 24" fill="none" xmlns="http://www.w3.org/2000/svg">
<path fill-rule="evenodd" clip-rule="evenodd" d="M12 20C15.866 20 19 16.866 19 13C19 9.13401 15.866 6 12 6C8.13401 6 5 9.13401 5 13C5 16.866 8.13401 20 12 20ZM12 22C16.9706 22 21 17.9706 21 13C21 8.02944 16.9706 4 12 4C7.02944 4 3 8.02944 3 13C3 17.9706 7.02944 22 12 22Z" fill="black"/>
<path fill-rule="evenodd" clip-rule="evenodd" d="M11 9H13V12.5858L14.7071 14.2929L13.2929 15.7071L11 13.4142V9Z" fill="black"/>
<path fill-rule="evenodd" clip-rule="evenodd" d="M7.82866 3.90865C6.21486 4.65044 4.83127 5.81019 3.8176 7.24965L2.18237 6.09812C3.39727 4.3729 5.05571 2.98208 6.99337 2.09143L7.82866 3.90865Z" fill="black"/>
<path fill-rule="evenodd" clip-rule="evenodd" d="M16.1713 3.90865C17.7851 4.65044 19.1687 5.81019 20.1824 7.24965L21.8176 6.09812C20.6027 4.3729 18.9443 2.98208 17.0066 2.09143L16.1713 3.90865Z" fill="black"/>
</svg>
