<svg width="24" height="24" viewBox="0 0 24 24" fill="none" xmlns="http://www.w3.org/2000/svg">
<path d="M20 12C20 7.58172 16.4183 4 12 4C9.48295 4 7.27119 5.1635 5.81776 6.99321L7.49707 6.98829L7.50293 8.98828L2.5 9.00293L2.5 4H4.5L4.5 5.44947C6.31255 3.34038 8.97702 2 12 2C17.5228 2 22 6.47715 22 12C22 17.5228 17.5228 22 12 22C8.06405 22 4.73586 19.7278 3.10449 16.445L4.89551 15.555C6.20955 18.1991 8.86851 20 12 20C16.4183 20 20 16.4183 20 12Z" fill="black"/>
<path fill-rule="evenodd" clip-rule="evenodd" d="M11 7H13V11.5858L14.7071 13.2929L13.2929 14.7071L11 12.4142V7Z" fill="black"/>
</svg>
