<svg width="24" height="24" viewBox="0 0 24 24" fill="none" xmlns="http://www.w3.org/2000/svg">
<path fill-rule="evenodd" clip-rule="evenodd" d="M18 4H20V2H4V4H6V7C6 9.08697 7.06551 10.9251 8.68221 12C7.06551 13.0749 6 14.913 6 17V20H4V22H20V20H18V17C18 14.913 16.9345 13.0749 15.3178 12C16.9345 10.9251 18 9.08697 18 7V4ZM9.33333 20H8V17C8 14.7909 9.79086 13 12 13C14.2091 13 16 14.7909 16 17V20H14.6667L12 16L9.33333 20ZM16 4H8V7H16V4ZM15.4649 9C14.7733 10.1956 13.4806 11 12 11C10.5194 11 9.22675 10.1956 8.53513 9H15.4649Z" fill="black"/>
</svg>
