<svg width="24" height="24" viewBox="0 0 24 24" fill="none" xmlns="http://www.w3.org/2000/svg">
<path d="M13.9323 12.482L15.7071 10.7072L14.2928 9.29297L12.518 11.0678C12.3528 11.0236 12.1792 11.0001 12 11.0001C10.8954 11.0001 10 11.8955 10 13.0001C10 14.1046 10.8954 15.0001 12 15.0001C13.1046 15.0001 14 14.1046 14 13.0001C14 12.8209 13.9764 12.6472 13.9323 12.482Z" fill="black"/>
<path fill-rule="evenodd" clip-rule="evenodd" d="M15 3H9V1H15V3Z" fill="black"/>
<path fill-rule="evenodd" clip-rule="evenodd" d="M21 13C21 17.9706 16.9706 22 12 22C7.02944 22 3 17.9706 3 13C3 8.02944 7.02944 4 12 4C14.125 4 16.078 4.73647 17.6177 5.96809L18.7928 4.79291L20.2071 6.20712L19.0319 7.3823C20.2635 8.92197 21 10.875 21 13ZM19 13C19 16.866 15.866 20 12 20C8.13401 20 5 16.866 5 13C5 9.13401 8.13401 6 12 6C15.866 6 19 9.13401 19 13Z" fill="black"/>
</svg>
