<svg width="24" height="24" viewBox="0 0 24 24" fill="none" xmlns="http://www.w3.org/2000/svg">
<path d="M4 12C4 7.58172 7.58172 4 12 4C14.5171 4 16.7288 5.1635 18.1822 6.99321L16.5029 6.98829L16.4971 8.98828L21.5 9.00293L21.5 4H19.5L19.5 5.44947C17.6875 3.34038 15.023 2 12 2C6.47715 2 2 6.47715 2 12C2 17.5228 6.47715 22 12 22C15.9359 22 19.2641 19.7278 20.8955 16.445L19.1045 15.555C17.7905 18.1991 15.1315 20 12 20C7.58172 20 4 16.4183 4 12Z" fill="black"/>
<path fill-rule="evenodd" clip-rule="evenodd" d="M11 7H13V11.5858L14.7071 13.2929L13.2929 14.7071L11 12.4142V7Z" fill="black"/>
</svg>
