<svg width="24" height="24" viewBox="0 0 24 24" fill="none" xmlns="http://www.w3.org/2000/svg">
<path fill-rule="evenodd" clip-rule="evenodd" d="M18.0319 16.6177C19.2635 15.078 20 13.125 20 11C20 6.02944 15.9706 2 11 2C6.02944 2 2 6.02944 2 11C2 15.9706 6.02944 20 11 20C13.125 20 15.078 19.2635 16.6177 18.0319L20.2929 21.7071L21.7071 20.2928L18.0319 16.6177ZM18 11C18 14.866 14.866 18 11 18C7.13401 18 4 14.866 4 11C4 7.13401 7.13401 4 11 4C14.866 4 18 7.13401 18 11Z" fill="black"/>
<path fill-rule="evenodd" clip-rule="evenodd" d="M13 10.8284L11 8.82843L9 10.8284V13H13V10.8284ZM11 6L15 10V15H7V10L11 6Z" fill="black"/>
</svg>
