<svg width="24" height="24" viewBox="0 0 24 24" fill="none" xmlns="http://www.w3.org/2000/svg">
<path d="M15.5 9H13V8H11V9H10.6241C9.17487 9 8 10.1749 8 11.6241C8 12.9069 8.92741 14.0017 10.1927 14.2126L13.4785 14.7602C13.7794 14.8104 14 15.0708 14 15.3759C14 15.7206 13.7206 16 13.3759 16H8.5V18H11V19H13V18H13.3759C14.8251 18 16 16.8251 16 15.3759C16 14.0931 15.0726 12.9983 13.8073 12.7874L10.5215 12.2398C10.2206 12.1896 10 11.9292 10 11.6241C10 11.2794 10.2794 11 10.6241 11H15.5V9Z" fill="black"/>
<path fill-rule="evenodd" clip-rule="evenodd" d="M19 9.97817L12 4.53372L5 9.97817V20H19V9.97817ZM12 2L21 9V22H3V9L12 2Z" fill="black"/>
</svg>
