<svg width="24" height="24" viewBox="0 0 24 24" fill="none" xmlns="http://www.w3.org/2000/svg">
<path fill-rule="evenodd" clip-rule="evenodd" d="M16.6774 13.7584L16.6849 13.7491C17.5086 12.7215 18 11.4209 18 10C18 6.68629 15.3137 4 12 4C8.68629 4 6 6.68629 6 10C6 11.4207 6.49131 12.7213 7.31491 13.7488C7.31499 13.7489 7.31484 13.7487 7.31491 13.7488L7.31999 13.7551C8.57928 15.3219 9.91722 16.7702 11.3037 18.271C11.5302 18.5162 11.758 18.7629 11.987 19.0116L16.6774 13.7584ZM12 22C11.5548 21.501 11.1028 21.0056 10.6481 20.5112C10.3986 20.2397 10.1482 19.9686 9.89768 19.6973C8.48135 18.1635 7.06134 16.6258 5.7611 15.0081L5.75463 15C4.65672 13.6304 4 11.8919 4 10C4 5.58172 7.58172 2 12 2C16.4183 2 20 5.58172 20 10C20 11.0609 19.7935 12.0736 19.4185 13C19.1257 13.7233 18.7302 14.3941 18.25 14.9942C18.2491 14.9953 18.2482 14.9965 18.2473 14.9976C18.2467 14.9984 18.246 14.9992 18.2454 15H18.25L12 22Z" fill="black"/>
<path fill-rule="evenodd" clip-rule="evenodd" d="M13.5 9.41987L12 8.13416L10.5 9.41987V11.5H13.5V9.41987ZM12 5.5L15.5 8.5V13.5H8.5V8.5L12 5.5Z" fill="black"/>
</svg>
