<svg width="24" height="24" viewBox="0 0 24 24" fill="none" xmlns="http://www.w3.org/2000/svg">
<path fill-rule="evenodd" clip-rule="evenodd" d="M9 14H7V12H9V14Z" fill="black"/>
<path fill-rule="evenodd" clip-rule="evenodd" d="M9 18H7V16H9V18Z" fill="black"/>
<path fill-rule="evenodd" clip-rule="evenodd" d="M13 14H11V12H13V14Z" fill="black"/>
<path fill-rule="evenodd" clip-rule="evenodd" d="M17 14H15V12H17V14Z" fill="black"/>
<path fill-rule="evenodd" clip-rule="evenodd" d="M17 18H15V16H17V18Z" fill="black"/>
<path fill-rule="evenodd" clip-rule="evenodd" d="M5 4H9L12 2L15 4H19L21 9V20H23V22H1V20H3V9L5 4ZM5 10V20H11V16H13V20H19V10H5ZM17.6459 6L18.4459 8H5.55407L6.35407 6H9.60555L12 4.4037L14.3944 6H17.6459Z" fill="black"/>
</svg>
