<svg width="24" height="24" viewBox="0 0 24 24" fill="none" xmlns="http://www.w3.org/2000/svg">
<path d="M14 4C11.1287 4 8.55913 6.02383 7.50602 9H13V11H7.05347C7.0182 11.3267 7 11.6604 7 12C7 12.3396 7.0182 12.6733 7.05347 13H13V15H7.50602C8.55913 17.9762 11.1287 20 14 20C15.1366 20 16.2116 19.6905 17.1659 19.1356L18.1714 20.8644C16.9279 21.5876 15.5081 22 14 22C9.89751 22 6.54956 19.0034 5.41462 15H3V13H5.04495C5.01521 12.6704 5 12.3368 5 12C5 11.6632 5.01521 11.3296 5.04495 11H3V9H5.41462C6.54956 4.99657 9.89751 2 14 2C15.5081 2 16.9279 2.41241 18.1714 3.13556L17.1659 4.86444C16.2116 4.30945 15.1366 4 14 4Z" fill="black"/>
</svg>
