<svg width="24" height="24" viewBox="0 0 24 24" fill="none" xmlns="http://www.w3.org/2000/svg">
<path d="M6.63651 10.0109C6.52946 9.54777 6.53122 9.05239 6.66283 8.56121C7.09165 6.96081 8.73666 6.01106 10.3371 6.43989C10.6973 6.53641 11.0245 6.69453 11.3105 6.8999C11.9652 6.55895 12.6731 6.30587 13.4185 6.15638C12.7793 5.37985 11.9003 4.7882 10.8547 4.50804C8.18737 3.79333 5.44569 5.37624 4.73098 8.04357C4.51142 8.86296 4.50869 9.68937 4.68761 10.4619C5.29329 10.2087 5.94932 10.052 6.63651 10.0109Z" fill="black"/>
<path fill-rule="evenodd" clip-rule="evenodd" d="M11.2084 3.56735L11.726 1.6355L13.4653 2.10153L12.9476 4.03339L11.2084 3.56735Z" fill="black"/>
<path fill-rule="evenodd" clip-rule="evenodd" d="M5.53827 4.17126L4.53827 2.43921L6.09766 1.5389L7.09766 3.27095L5.53827 4.17126Z" fill="black"/>
<path fill-rule="evenodd" clip-rule="evenodd" d="M3.27281 9.6217L1.33801 9.10327L1.80405 7.364L3.73885 7.88243L3.27281 9.6217Z" fill="black"/>
<path fill-rule="evenodd" clip-rule="evenodd" d="M9.93774 13H7C5.34315 13 4 14.3431 4 16C4 17.6569 5.34315 19 7 19H15C17.7614 19 20 16.7614 20 14C20 11.2386 17.7614 9 15 9C13.0084 9 11.2848 10.1643 10.4802 11.8582L9.93774 13ZM22 14C22 17.866 18.866 21 15 21H7C4.23858 21 2 18.7614 2 16C2 13.2386 4.23858 11 7 11H8.67363C9.7971 8.63505 12.2076 7 15 7C18.866 7 22 10.134 22 14Z" fill="black"/>
</svg>
