<svg width="24" height="24" viewBox="0 0 24 24" fill="none" xmlns="http://www.w3.org/2000/svg">
<path d="M8.72983 9.03137C7.51574 8.24064 6.6056 7.02237 6.21296 5.5901C5.47693 6.1368 5 7.0127 5 8C5 8.8213 5.33003 9.56551 5.86471 10.1073C5.15777 10.2426 4.49491 10.5021 3.89964 10.8621C3.33264 10.0512 3 9.06447 3 8C3 5.9383 4.24783 4.16805 6.02945 3.40329C6.63412 3.14373 7.30027 3 8 3C8.042 3 8.08388 3.00052 8.12563 3.00155C8.04361 3.32071 8 3.65528 8 4.00003C8 4.27596 8.02794 4.54535 8.08114 4.80555C8.33068 6.026 9.13602 7.04406 10.2212 7.58373C9.66346 7.99982 9.16189 8.48686 8.72983 9.03137Z" fill="black"/>
<path fill-rule="evenodd" clip-rule="evenodd" d="M9.93774 13H7C5.34315 13 4 14.3431 4 16C4 17.6569 5.34315 19 7 19H15C17.7614 19 20 16.7614 20 14C20 11.2386 17.7614 9 15 9C13.0084 9 11.2848 10.1643 10.4802 11.8582L9.93774 13ZM22 14C22 17.866 18.866 21 15 21H7C4.23858 21 2 18.7614 2 16C2 13.2386 4.23858 11 7 11H8.67363C9.7971 8.63505 12.2076 7 15 7C18.866 7 22 10.134 22 14Z" fill="black"/>
</svg>
