<svg width="24" height="24" viewBox="0 0 24 24" fill="none" xmlns="http://www.w3.org/2000/svg">
<path d="M7 11H9.93774L10.4802 9.85818C11.2848 8.16429 13.0084 7 15 7C17.7614 7 20 9.23858 20 12C20 14.0503 18.7659 15.8124 17 16.584V18.7101C19.8915 17.8496 22 15.171 22 12C22 8.13401 18.866 5 15 5C12.2076 5 9.7971 6.63505 8.67363 9H7C4.23858 9 2 11.2386 2 14C2 16.419 3.71776 18.4367 6 18.9V16.8293C4.83481 16.4175 4 15.3062 4 14C4 12.3431 5.34315 11 7 11Z" fill="black"/>
<path d="M11.3406 21L13.4834 16H15.6594L13.5165 21H11.3406Z" fill="black"/>
<path d="M7.34059 21L9.48345 16H11.6594L9.51653 21H7.34059Z" fill="black"/>
</svg>
