<svg width="24" height="24" viewBox="0 0 24 24" fill="none" xmlns="http://www.w3.org/2000/svg">
<path fill-rule="evenodd" clip-rule="evenodd" d="M10.0982 4V2H11.8988V4H10.0982Z" fill="black"/>
<path fill-rule="evenodd" clip-rule="evenodd" d="M4.7776 6.05093L3.36339 4.63672L4.63662 3.36348L6.05084 4.7777L4.7776 6.05093Z" fill="black"/>
<path fill-rule="evenodd" clip-rule="evenodd" d="M4 11.9019H1.99695V10.1012H4V11.9019Z" fill="black"/>
<path d="M13.4121 6.34521C12.5187 5.51073 11.319 5 10 5C7.23858 5 5 7.23858 5 10C5 11.319 5.51073 12.5187 6.34521 13.4121L7.7608 11.9965C7.2876 11.4662 7 10.7667 7 10C7 8.34315 8.34315 7 10 7C10.7667 7 11.4662 7.2876 11.9965 7.7608L13.4121 6.34521Z" fill="black"/>
<path fill-rule="evenodd" clip-rule="evenodd" d="M3.29289 19.293L19.2929 3.29297L20.7071 4.70718L4.70711 20.7072L3.29289 19.293Z" fill="black"/>
<path fill-rule="evenodd" clip-rule="evenodd" d="M18.358 14.1451C18.7601 14.656 19 15.3005 19 16C19 17.6569 17.6569 19 16 19C15.3005 19 14.656 18.7601 14.1451 18.358C16.0345 17.5494 17.5494 16.0345 18.358 14.1451ZM18.9432 11.9576C20.1899 12.8669 21 14.3388 21 16C21 18.7614 18.7614 21 16 21C14.3388 21 12.8669 20.1899 11.9576 18.9432C11.5427 18.3743 11.2449 17.7145 11.0999 16.9992C11.7901 16.9879 12.4521 16.8601 13.0668 16.6345C14.7179 16.0287 16.0287 14.7179 16.6345 13.0668C16.8601 12.4521 16.9879 11.7901 16.9992 11.0999C17.7145 11.2449 18.3743 11.5427 18.9432 11.9576Z" fill="black"/>
</svg>
