<svg width="24" height="24" viewBox="0 0 24 24" fill="none" xmlns="http://www.w3.org/2000/svg">
<path fill-rule="evenodd" clip-rule="evenodd" d="M17.6187 15.9929C16.3424 17.7066 14.2999 18.8167 12 18.8167C8.13401 18.8167 5 15.6827 5 11.8167C5 9.43858 6.18676 7.33598 8.00024 6.07075C8.03736 11.4336 12.2959 15.7934 17.6187 15.9929ZM18.6621 13.9731C18.4438 13.991 18.223 14.0001 18 14.0001C13.5817 14.0001 10 10.4184 10 6.00008C10 5.69271 10.0173 5.38939 10.0511 5.09104C10.1371 4.33094 10.3295 3.60311 10.6133 2.92285C9.79614 3.04922 9.01533 3.28551 8.2864 3.61612C5.16857 5.03027 3 8.17022 3 11.8167C3 16.7872 7.02944 20.8167 12 20.8167C15.5472 20.8167 18.6151 18.7646 20.0812 15.7828C20.4349 15.0636 20.6953 14.2903 20.8468 13.4787C20.159 13.7407 19.4258 13.9105 18.6621 13.9731Z" fill="black"/>
</svg>
