<svg width="24" height="24" viewBox="0 0 24 24" fill="none" xmlns="http://www.w3.org/2000/svg">
<path fill-rule="evenodd" clip-rule="evenodd" d="M13 6.22655L15.5196 3.70694L14.1054 2.29272L12 4.39813L9.8946 2.29272L8.48039 3.70694L11 6.22655V10.2678L7.50018 8.24721L6.57794 4.80535L4.64609 5.32299L5.41672 8.19903L2.54068 8.96966L3.05832 10.9015L6.50018 9.97926L10 11.9999L6.50015 14.0205L3.05829 13.0983L2.54065 15.0301L5.41668 15.8008L4.64605 18.6768L6.5779 19.1944L7.50015 15.7526L11 13.7319V17.7732L8.48039 20.2928L9.8946 21.707L12 19.6016L14.1054 21.707L15.5196 20.2928L13 17.7732V13.7319L16.4998 15.7526L17.4221 19.1944L19.3539 18.6768L18.5833 15.8008L21.4593 15.0301L20.9417 13.0983L17.4998 14.0205L14 11.9999L17.4998 9.97926L20.9417 10.9015L21.4593 8.96966L18.5833 8.19903L19.3539 5.32299L17.4221 4.80535L16.4998 8.24721L13 10.2678V6.22655Z" fill="black"/>
</svg>
