<svg width="24" height="24" viewBox="0 0 24 24" fill="none" xmlns="http://www.w3.org/2000/svg">
<path fill-rule="evenodd" clip-rule="evenodd" d="M12 16C14.2091 16 16 14.2091 16 12C16 9.79086 14.2091 8 12 8C9.79086 8 8 9.79086 8 12C8 14.2091 9.79086 16 12 16ZM18 12C18 15.3137 15.3137 18 12 18C8.68629 18 6 15.3137 6 12C6 8.68629 8.68629 6 12 6C15.3137 6 18 8.68629 18 12Z" fill="black"/>
<path fill-rule="evenodd" clip-rule="evenodd" d="M10.9952 4V2H12.9952V4H10.9952Z" fill="black"/>
<path fill-rule="evenodd" clip-rule="evenodd" d="M10.9952 21.9963V19.9995H12.9952V21.9963H10.9952Z" fill="black"/>
<path fill-rule="evenodd" clip-rule="evenodd" d="M5.78986 7.20715L4.2929 5.71021L5.70711 4.29599L7.20406 5.79293L5.78986 7.20715Z" fill="black"/>
<path fill-rule="evenodd" clip-rule="evenodd" d="M18.2898 19.7071L16.7929 18.2102L18.2071 16.796L19.704 18.2929L18.2898 19.7071Z" fill="black"/>
<path fill-rule="evenodd" clip-rule="evenodd" d="M3.99695 12.9983H1.99695L1.99695 10.9983H3.99695V12.9983Z" fill="black"/>
<path fill-rule="evenodd" clip-rule="evenodd" d="M21.9934 12.9983H19.9966V10.9983H21.9934V12.9983Z" fill="black"/>
<path fill-rule="evenodd" clip-rule="evenodd" d="M7.20051 18.207L5.70711 19.7004L4.29289 18.2862L5.78629 16.7928L7.20051 18.207Z" fill="black"/>
<path fill-rule="evenodd" clip-rule="evenodd" d="M19.7005 5.70703L18.2005 7.20703L16.7862 5.79282L18.2862 4.29282L19.7005 5.70703Z" fill="black"/>
</svg>
