<svg width="24" height="24" viewBox="0 0 24 24" fill="none" xmlns="http://www.w3.org/2000/svg">
<path fill-rule="evenodd" clip-rule="evenodd" d="M11 13.9987L10.2012 14.5988C9.46798 15.1495 9 16.0198 9 17C9 18.6569 10.3431 20 12 20C13.6569 20 15 18.6569 15 17C15 16.0198 14.532 15.1495 13.7988 14.5988L13 13.9987V5C13 4.44772 12.5523 4 12 4C11.4477 4 11 4.44772 11 5V13.9987ZM9 5C9 3.34315 10.3431 2 12 2C13.6569 2 15 3.34315 15 5V12.9996C16.2144 13.9118 17 15.3642 17 17C17 19.7614 14.7614 22 12 22C9.23858 22 7 19.7614 7 17C7 15.3642 7.78555 13.9118 9 12.9996V5Z" fill="black"/>
</svg>
