<svg width="24" height="24" viewBox="0 0 24 24" fill="none" xmlns="http://www.w3.org/2000/svg">
<path fill-rule="evenodd" clip-rule="evenodd" d="M2 12C2 11.6625 2.01672 11.3289 2.04938 11C2.5511 5.94668 6.81465 2 12 2C17.1853 2 21.4489 5.94668 21.9506 11C21.9833 11.3289 22 11.6625 22 12C22 12.3375 21.9833 12.6711 21.9506 13H13V19C13 20.6569 11.6569 22 10 22C8.34315 22 7 20.6569 7 19V18H9V19C9 19.5523 9.44772 20 10 20C10.5523 20 11 19.5523 11 19V13H2.04938C2.01672 12.6711 2 12.3375 2 12ZM19.9381 11C19.446 7.05369 16.0796 4 12 4C7.92038 4 4.55399 7.05369 4.06189 11H19.9381Z" fill="black"/>
</svg>
