<svg width="24" height="24" viewBox="0 0 24 24" fill="none" xmlns="http://www.w3.org/2000/svg">
<path fill-rule="evenodd" clip-rule="evenodd" d="M9 5C8.63112 5 8.30758 5.19922 8.13317 5.50073L6.40196 4.49927C6.91916 3.60518 7.88832 3 9 3C10.6569 3 12 4.34315 12 6C12 7.65685 10.6569 9 9 9H3V7H9C9.55228 7 10 6.55228 10 6C10 5.44772 9.55228 5 9 5Z" fill="black"/>
<path fill-rule="evenodd" clip-rule="evenodd" d="M14 19C13.6311 19 13.3076 18.8008 13.1332 18.4993L11.402 19.5007C11.9192 20.3948 12.8883 21 14 21C15.6569 21 17 19.6569 17 18C17 16.3431 15.6569 15 14 15H3V17H14C14.5523 17 15 17.4477 15 18C15 18.5523 14.5523 19 14 19Z" fill="black"/>
<path fill-rule="evenodd" clip-rule="evenodd" d="M17 7C16.1307 7 15.3886 7.5551 15.1135 8.33325L13.2279 7.66675C13.7765 6.11451 15.2568 5 17 5C19.2091 5 21 6.79086 21 9C21 11.2091 19.2091 13 17 13H3V11H17C18.1046 11 19 10.1046 19 9C19 7.89543 18.1046 7 17 7Z" fill="black"/>
</svg>
