<svg width="24" height="24" viewBox="0 0 24 24" fill="none" xmlns="http://www.w3.org/2000/svg">
<circle cx="12" cy="7" r="1.5" fill="black"/>
<circle cx="16.5" cy="9.5" r="1.5" fill="black"/>
<circle cx="7.5" cy="10" r="1.5" fill="black"/>
<circle cx="8.5" cy="15.5" r="1.5" fill="black"/>
<path fill-rule="evenodd" clip-rule="evenodd" d="M20.9583 14.0761C21.2266 14.1192 21.489 14.18 21.7441 14.2574C21.8934 13.6106 21.9799 12.9398 21.9969 12.2517C21.999 12.1681 22 12.0842 22 12C22 6.47715 17.5228 2 12 2C6.47715 2 2 6.47715 2 12C2 17.5228 6.47715 22 12 22C12.0842 22 12.1681 21.999 12.2517 21.9969C12.9398 21.9799 13.6106 21.8934 14.2574 21.7441C14.18 21.489 14.1192 21.2266 14.0761 20.9583C14.026 20.6462 14 20.3262 14 20C14 16.6863 16.6863 14 20 14C20.3262 14 20.6462 14.026 20.9583 14.0761ZM12 20C12 15.5817 15.5817 12 20 12C20 7.58172 16.4183 4 12 4C7.58172 4 4 7.58172 4 12C4 16.4183 7.58172 20 12 20Z" fill="black"/>
</svg>
