<svg width="24" height="24" viewBox="0 0 24 24" fill="none" xmlns="http://www.w3.org/2000/svg">
<path d="M11.9799 6.32318L7.75732 2.10059L2.10046 7.75744L6.32306 11.98L9.15147 9.15163L7.75731 7.75746L6.34311 9.17166L4.92889 7.75744L7.75732 4.92901L10.5657 7.7374L11.9799 6.32318Z" fill="black"/>
<path d="M14.8486 14.8486L16.2427 16.2427L14.8284 17.657L16.2426 19.0711L19.071 16.2427L16.2628 13.4345L17.677 12.0202L21.8995 16.2427L16.2426 21.8996L12.0201 17.6771L14.8486 14.8486Z" fill="black"/>
<path fill-rule="evenodd" clip-rule="evenodd" d="M3.5 16.5L17.5 2.5L21.5 6.5L7.50001 20.5L2.5 21.5L3.5 16.5ZM17.5 5.32843L18.6716 6.5L17.7929 7.37868L16.6213 6.2071L17.5 5.32843ZM15.2071 7.62132L5.34241 17.486L5.04951 18.9505L6.51398 18.6576L16.3787 8.79289L15.2071 7.62132Z" fill="black"/>
</svg>
