<svg width="24" height="24" viewBox="0 0 24 24" fill="none" xmlns="http://www.w3.org/2000/svg">
<path fill-rule="evenodd" clip-rule="evenodd" d="M16.6774 10.2416L16.6849 10.2509C17.5086 11.2785 18 12.5791 18 14C18 17.3137 15.3137 20 12 20C8.68629 20 6 17.3137 6 14C6 12.5793 6.49131 11.2787 7.31491 10.2512V10.2512L7.31999 10.2449C8.57928 8.6781 9.91722 7.2298 11.3037 5.72897C11.5302 5.48376 11.758 5.23715 11.987 4.98839L16.6774 10.2416ZM12 2C11.5548 2.49896 11.1028 2.99439 10.6481 3.48885C10.3986 3.76028 10.1482 4.03142 9.89768 4.30269C8.48135 5.83646 7.06134 7.37421 5.7611 8.99193L5.75463 9C4.65672 10.3696 4 12.1081 4 14C4 18.4183 7.58172 22 12 22C16.4183 22 20 18.4183 20 14C20 12.9391 19.7935 11.9264 19.4185 11C19.1257 10.2767 18.7302 9.60589 18.25 9.00578L18.2473 9.00241L18.2454 9H18.25L12 2Z" fill="black"/>
</svg>
