<svg width="24" height="24" viewBox="0 0 24 24" fill="none" xmlns="http://www.w3.org/2000/svg">
<path fill-rule="evenodd" clip-rule="evenodd" d="M14.8285 3.51459C16.3906 1.95249 18.9232 1.95249 20.4853 3.51459C22.0474 5.07669 22.0474 7.60935 20.4853 9.17144L19.0711 10.5857L20.4853 11.9999L19.0711 13.4141L10.5858 4.92887L12 3.51465L13.4142 4.92884L14.8285 3.51459ZM19.0711 7.75723L17.6569 9.17144L14.8285 6.34302L16.2427 4.9288C17.0237 4.14776 18.2901 4.14776 19.0711 4.9288C19.8522 5.70985 19.8522 6.97618 19.0711 7.75723Z" fill="black"/>
<path d="M12.7073 8.46426L11.293 7.05005L4.22188 14.1212L3.51477 20.4852L9.87873 19.7781L16.9499 12.7069L15.5357 11.2927L8.9606 17.8678L5.77862 18.2213L6.13217 15.0394L12.7073 8.46426Z" fill="black"/>
</svg>
