<svg width="24" height="24" viewBox="0 0 24 24" fill="none" xmlns="http://www.w3.org/2000/svg">
<g clip-path="url(#clip0_207_640)">
<path fill-rule="evenodd" clip-rule="evenodd" d="M13.4142 6.34326L17.6568 10.5859L5.636 22.6068L1.39337 18.3641L13.4142 6.34326ZM13.4142 9.17169L14.8284 10.5859L13.4142 12.0001L12 10.5859L13.4142 9.17169ZM5.63601 19.7783L4.2218 18.3641L10.5858 12.0002L12 13.4144L5.63601 19.7783Z" fill="black"/>
<path d="M18.364 4.47887L20.4853 3.51463L19.521 5.63595L20.4853 7.75727L18.364 6.79303L16.2426 7.75727L17.2069 5.63595L16.2426 3.51463L18.364 4.47887Z" fill="black"/>
<path d="M9.87866 3.0648L12 2.10057L11.0357 4.22189L12 6.34321L9.87866 5.37897L7.75734 6.34321L8.72158 4.22189L7.75734 2.10057L9.87866 3.0648Z" fill="black"/>
<path d="M19.7782 12.9642L21.8995 12L20.9353 14.1213L21.8995 16.2426L19.7782 15.2784L17.6569 16.2426L18.6211 14.1213L17.6569 12L19.7782 12.9642Z" fill="black"/>
</g>
<defs>
<clipPath id="clip0_207_640">
<rect width="24" height="24" fill="white"/>
</clipPath>
</defs>
</svg>
