<svg width="24" height="24" viewBox="0 0 24 24" fill="none" xmlns="http://www.w3.org/2000/svg">
<path fill-rule="evenodd" clip-rule="evenodd" d="M19.8136 9.89956L11.3284 1.41431L8.49996 4.24268L5.70712 1.44981L4.2929 2.86402L7.08575 5.65689L1.42883 11.3138L9.91409 19.799L19.8136 9.89956ZM8.49995 7.07111L4.25726 11.3138L9.9141 16.9706L16.9852 9.89956L11.3284 4.24273L9.91417 5.6569L12.0355 7.77828L10.6213 9.19248L8.49995 7.07111Z" fill="black"/>
<path fill-rule="evenodd" clip-rule="evenodd" d="M19.6869 18.1489C19.7129 18.1872 19.7404 18.2249 19.7694 18.2617C19.9119 18.4431 20 18.6756 20 18.9391C20 19.5631 19.5146 20 19 20C18.4854 20 18 19.5631 18 18.9391C18 18.6758 18.088 18.4434 18.2303 18.2621L18.2324 18.2595C18.2466 18.2414 18.2606 18.223 18.2742 18.2044L18.2904 18.1822L18.3397 18.1152C18.3828 18.0567 18.4456 17.9716 18.5234 17.8666C18.6498 17.6962 18.8153 17.4739 19.0007 17.2277C19.1874 17.4755 19.354 17.699 19.481 17.8703C19.5589 17.9753 19.6217 18.0603 19.6648 18.1188L19.6869 18.1489ZM21.3431 17.0252L21.342 17.0237C21.3095 16.9794 20.8262 16.3205 20.2716 15.5936C20.2291 15.5378 20.1862 15.4817 20.143 15.4254C19.7362 14.8952 19.3076 14.3515 19 14C18.661 14.3877 18.1722 15.0127 17.7291 15.5942C17.1568 16.345 16.6604 17.023 16.6604 17.023L16.658 17.0261C16.2463 17.5501 16 18.2153 16 18.9391C16 20.6296 17.3431 22 19 22C20.6569 22 22 20.6296 22 18.9391C22 18.9312 22 18.9233 21.9999 18.9154C21.9946 18.2018 21.7499 17.5463 21.3438 17.0283L21.3426 17.0269L21.342 17.0261H21.3438L21.3431 17.0252Z" fill="black"/>
</svg>
