<svg width="24" height="24" viewBox="0 0 24 24" fill="none" xmlns="http://www.w3.org/2000/svg">
<path fill-rule="evenodd" clip-rule="evenodd" d="M17.2942 2L8.88061 16.5728C8.59487 16.1585 8.21486 15.7995 7.74997 15.5311C6.07595 14.5646 3.93538 15.1382 2.96889 16.8122C2.00239 18.4862 2.57595 20.6268 4.24997 21.5933C5.924 22.5598 8.06456 21.9862 9.03106 20.3122L19.6036 2H17.2942ZM5.24997 19.8613C5.96741 20.2755 6.8848 20.0297 7.29901 19.3122C7.71323 18.5948 7.46741 17.6774 6.74997 17.2632C6.03254 16.849 5.11515 17.0948 4.70094 17.8122C4.28672 18.5297 4.53254 19.447 5.24997 19.8613Z" fill="black"/>
<path fill-rule="evenodd" clip-rule="evenodd" d="M4.39636 2L14.9689 20.3122C15.9354 21.9862 18.076 22.5598 19.75 21.5933C21.424 20.6268 21.9976 18.4862 21.0311 16.8122C20.0646 15.1382 17.924 14.5646 16.25 15.5311C15.7851 15.7995 15.4051 16.1585 15.1194 16.5728L6.70576 2H4.39636ZM18.75 19.8613C18.0326 20.2755 17.1152 20.0297 16.701 19.3122C16.2868 18.5948 16.5326 17.6774 17.25 17.2632C17.9675 16.849 18.8848 17.0948 19.2991 17.8122C19.7133 18.5297 19.4675 19.447 18.75 19.8613Z" fill="black"/>
</svg>
