<svg width="24" height="24" viewBox="0 0 24 24" fill="none" xmlns="http://www.w3.org/2000/svg">
<path fill-rule="evenodd" clip-rule="evenodd" d="M15 3H9V5H4.73244C4.38663 4.4022 3.74028 4 3 4C1.89543 4 1 4.89543 1 6C1 7.10457 1.89543 8 3 8C3.74028 8 4.38663 7.5978 4.73244 7H6.70835C5.04751 8.46589 4 10.6106 4 13V15H2V21H8V15H6V13C6 10.7792 7.2066 8.84012 9 7.80269V9H15V7.80269C16.7934 8.84012 18 10.7792 18 13V15H16V21H22V15H20V13C20 10.6106 18.9525 8.46589 17.2916 7H19.2676C19.6134 7.5978 20.2597 8 21 8C22.1046 8 23 7.10457 23 6C23 4.89543 22.1046 4 21 4C20.2597 4 19.6134 4.4022 19.2676 5H15V3ZM13 5H11V7H13V5ZM4 17H6V19H4V17ZM20 17H18V19H20V17Z" fill="black"/>
</svg>
