<svg width="24" height="24" viewBox="0 0 24 24" fill="none" xmlns="http://www.w3.org/2000/svg">
<path fill-rule="evenodd" clip-rule="evenodd" d="M11.9563 13L12.5339 13.9985C13.2286 15.1994 14.522 16 16 16C18.2092 16 20 14.2091 20 12C20 9.79086 18.2092 8 16 8C14.522 8 13.2286 8.80063 12.5339 10.0015L11.9563 11H5.82735L4.82813 11.9997L5.82848 13H11.9563ZM2 12L5.00006 15H10.8027C11.8401 16.7934 13.7792 18 16 18C19.3137 18 22 15.3137 22 12C22 8.68629 19.3137 6 16 6C13.7792 6 11.8401 7.2066 10.8027 9H4.99866L2 12Z" fill="black"/>
<path d="M17 12C17 12.5523 16.5523 13 16 13C15.4477 13 15 12.5523 15 12C15 11.4477 15.4477 11 16 11C16.5523 11 17 11.4477 17 12Z" stroke="black" stroke-width="2"/>
</svg>
