<svg width="24" height="24" viewBox="0 0 24 24" fill="none" xmlns="http://www.w3.org/2000/svg">
<path fill-rule="evenodd" clip-rule="evenodd" d="M17.9711 17.3449C19.1336 15.7239 20 13.6327 20 11V5L12 2L4 5V11C4 19 12 22 12 22C12 22 14.4002 21.0999 16.5712 18.9711V18.9711C17.0594 18.4924 17.536 17.9515 17.9711 17.3449V17.3449ZM12 19.8037C11.9078 19.7569 11.8083 19.7049 11.7026 19.6477C11.0483 19.2933 10.179 18.7491 9.31701 17.9948C9.07806 17.7858 8.84137 17.5623 8.61094 17.3238C9.50192 16.502 10.6923 16 12 16C13.3077 16 14.4981 16.502 15.3891 17.3238C15.1586 17.5623 14.9219 17.7858 14.683 17.9948C13.821 18.7491 12.9517 19.2933 12.2974 19.6477C12.1917 19.7049 12.0922 19.7569 12 19.8037ZM16.6345 15.7538C15.4 14.6624 13.7773 14 12 14C10.2227 14 8.60006 14.6624 7.36555 15.7538C6.55664 14.4829 6 12.9164 6 11V6.386L12 4.136L18 6.386V11C18 12.9164 17.4434 14.4829 16.6345 15.7538Z" fill="black"/>
<path fill-rule="evenodd" clip-rule="evenodd" d="M12 11C12.5523 11 13 10.5523 13 10C13 9.44772 12.5523 9 12 9C11.4477 9 11 9.44772 11 10C11 10.5523 11.4477 11 12 11ZM12 13C13.6569 13 15 11.6569 15 10C15 8.34315 13.6569 7 12 7C10.3431 7 9 8.34315 9 10C9 11.6569 10.3431 13 12 13Z" fill="black"/>
</svg>
