<svg width="24" height="24" viewBox="0 0 24 24" fill="none" xmlns="http://www.w3.org/2000/svg">
<path fill-rule="evenodd" clip-rule="evenodd" d="M20 20H22V4H2V20H4V22H6V20H18V22H20V20ZM20 6H4V18H20V6Z" fill="black"/>
<path fill-rule="evenodd" clip-rule="evenodd" d="M16 12.0001C16 11.2583 15.7981 10.5636 15.4462 9.96808L16.7071 8.70718L15.2928 7.29297L14.0319 8.55388C13.4364 8.20201 12.7418 8.00009 12 8.00009C11.2581 8.00009 10.5635 8.20204 9.96792 8.55397L8.70709 7.29315L7.29288 8.70737L8.55375 9.96823C8.2019 10.5637 7.99999 11.2583 7.99999 12.0001C7.99999 12.7419 8.20191 13.4365 8.55379 14.032L7.2929 15.2929L8.70711 16.7071L9.96799 15.4462C10.5635 15.7981 11.2582 16.0001 12 16.0001C12.7418 16.0001 13.4364 15.7982 14.0319 15.4463L15.2928 16.7072L16.707 15.293L15.4461 14.0321C15.798 13.4366 16 12.7419 16 12.0001ZM13.9322 11.482C13.9378 11.5026 13.943 11.5234 13.9478 11.5443C13.9757 11.664 13.9929 11.7878 13.9982 11.9147C13.9994 11.943 14 11.9715 14 12.0001C14 13.1047 13.1046 14.0001 12 14.0001C11.0522 14.0001 10.2583 13.3408 10.0521 12.4557C10.0248 12.3385 10.0078 12.2174 10.0021 12.0933C10.0007 12.0624 9.99999 12.0313 9.99999 12.0001C9.99999 11.821 10.0235 11.6474 10.0677 11.4822C10.2517 10.7939 10.7936 10.252 11.4819 10.0679C11.6471 10.0237 11.8208 10.0001 12 10.0001C12.1791 10.0001 12.3528 10.0236 12.518 10.0678C13.2062 10.2518 13.7482 10.7938 13.9322 11.482Z" fill="black"/>
</svg>
