<svg width="24" height="24" viewBox="0 0 24 24" fill="none" xmlns="http://www.w3.org/2000/svg">
<path fill-rule="evenodd" clip-rule="evenodd" d="M12.7056 20.1286C12.7077 20.1294 12.709 20.1299 12.7094 20.13L12.7072 20.1292L12.7056 20.1286ZM12 19.8037C11.9078 19.7569 11.8083 19.7049 11.7026 19.6477C11.0483 19.2933 10.179 18.7491 9.31701 17.9948C7.60021 16.4927 6 14.2493 6 11V6.386L12 4.136L18 6.386V11C18 14.2493 16.3998 16.4926 14.683 17.9948C13.821 18.7491 12.9517 19.2933 12.2974 19.6477C12.1917 19.7049 12.0922 19.7569 12 19.8037ZM20 5V11C20 19 12 22 12 22C12 22 4 19 4 11V5L12 2L20 5ZM11.2944 20.1286L11.2928 20.1292L11.2906 20.13C11.291 20.1299 11.2923 20.1294 11.2944 20.1286Z" fill="black"/>
<path fill-rule="evenodd" clip-rule="evenodd" d="M16.7071 9.70718L11 15.4143L7.79291 12.2072L9.20712 10.793L11 12.5859L15.2929 8.29297L16.7071 9.70718Z" fill="black"/>
</svg>
