<svg width="24" height="24" viewBox="0 0 24 24" fill="none" xmlns="http://www.w3.org/2000/svg">
<path fill-rule="evenodd" clip-rule="evenodd" d="M8.5 21C9.32843 21 10 20.3284 10 19.5C10 18.6716 9.32843 18 8.5 18C7.67157 18 7 18.6716 7 19.5C7 20.3284 7.67157 21 8.5 21Z" fill="black"/>
<path fill-rule="evenodd" clip-rule="evenodd" d="M16.5 21C17.3284 21 18 20.3284 18 19.5C18 18.6716 17.3284 18 16.5 18C15.6716 18 15 18.6716 15 19.5C15 20.3284 15.6716 21 16.5 21Z" fill="black"/>
<path d="M4.78078 3H1V5H3.21922L6.21922 17H18.8022L21.2466 6H19.1966L17.1978 15H7.78078L4.78078 3Z" fill="black"/>
<path d="M11.7929 12.2928L13.2071 13.7071L16.9142 9.99996L13.2071 6.29285L11.7929 7.70706L13.0859 9.00003L9 9.00003V11H13.0857L11.7929 12.2928Z" fill="black"/>
</svg>
