<svg width="24" height="24" viewBox="0 0 24 24" fill="none" xmlns="http://www.w3.org/2000/svg">
<path fill-rule="evenodd" clip-rule="evenodd" d="M11.0661 4.59912L12 6L12.9339 4.59912C13.5999 3.60008 14.7212 3 15.9219 3H16C17.6569 3 19 4.34315 19 6C19 6.35064 18.9398 6.68722 18.8293 7H22V9H21V21H3V9H2V7H5.17071C5.06015 6.68722 5 6.35064 5 6C5 4.34315 6.34315 3 8 3H8.0781C9.2788 3 10.4001 3.60008 11.0661 4.59912ZM8 7C7.44772 7 7 6.55228 7 6C7 5.44772 7.44772 5 8 5H8.0781C8.61009 5 9.10688 5.26588 9.40198 5.70852L10.263 7H8ZM13.737 7H16C16.5523 7 17 6.55228 17 6C17 5.44772 16.5523 5 16 5H15.9219C15.3899 5 14.8931 5.26588 14.598 5.70852L13.737 7ZM5 9V19H11V9H5ZM13 9V19H19V9H13Z" fill="black"/>
</svg>
