<svg width="24" height="24" viewBox="0 0 24 24" fill="none" xmlns="http://www.w3.org/2000/svg">
<path fill-rule="evenodd" clip-rule="evenodd" d="M14.4721 4.39155L12 2L9.52786 4.39155L6.12215 3.90983L5.52786 7.29772L2.48943 8.90983L4 12L2.48943 15.0902L5.52786 16.7023L6.12215 20.0902L9.52786 19.6085L12 22L14.4721 19.6085L17.8779 20.0902L18.4721 16.7023L21.5106 15.0902L20 12L21.5106 8.90983L18.4721 7.29772L17.8779 3.90983L14.4721 4.39155ZM16.2422 6.16109L13.7842 6.50876L12 4.78271L10.2158 6.50876L7.75778 6.16109L7.32887 8.60623L5.13595 9.76973L6.22616 12L5.13595 14.2303L7.32887 15.3938L7.75778 17.8389L10.2158 17.4912L12 19.2173L13.7842 17.4912L16.2422 17.8389L16.6711 15.3938L18.864 14.2303L17.7738 12L18.864 9.76973L16.6711 8.60623L16.2422 6.16109Z" fill="black"/>
</svg>
