<svg width="24" height="24" viewBox="0 0 24 24" fill="none" xmlns="http://www.w3.org/2000/svg">
<g clip-path="url(#clip0_207_742)">
<path fill-rule="evenodd" clip-rule="evenodd" d="M12 0.686157L15.4637 3.6379L20.0001 3.99991L20.3621 8.53632L23.3139 12L20.3621 15.4637L20.0001 20.0001L15.4637 20.3621L12 23.3139L8.5363 20.3621L3.99989 20.0001L3.63788 15.4637L0.686134 12L3.63788 8.53632L3.99989 3.99991L8.53629 3.6379L12 0.686157ZM12 3.31388L9.34076 5.58006L5.85797 5.85799L5.58004 9.34079L3.31386 12L5.58004 14.6593L5.85797 18.142L9.34076 18.42L12 20.6862L14.6592 18.42L18.142 18.142L18.42 14.6593L20.6861 12L18.42 9.34079L18.142 5.85799L14.6592 5.58006L12 3.31388Z" fill="black"/>
<path d="M11 9.5C11 10.3284 10.3284 11 9.5 11C8.67157 11 8 10.3284 8 9.5C8 8.67157 8.67157 8 9.5 8C10.3284 8 11 8.67157 11 9.5Z" fill="black"/>
<path d="M16 14.5C16 15.3284 15.3284 16 14.5 16C13.6716 16 13 15.3284 13 14.5C13 13.6716 13.6716 13 14.5 13C15.3284 13 16 13.6716 16 14.5Z" fill="black"/>
<path fill-rule="evenodd" clip-rule="evenodd" d="M7.79289 14.7928L14.7929 7.79285L16.2071 9.20706L9.20711 16.2071L7.79289 14.7928Z" fill="black"/>
</g>
<defs>
<clipPath id="clip0_207_742">
<rect width="24" height="24" fill="white"/>
</clipPath>
</defs>
</svg>
