<svg width="24" height="24" viewBox="0 0 24 24" fill="none" xmlns="http://www.w3.org/2000/svg">
<path fill-rule="evenodd" clip-rule="evenodd" d="M12 2C9.79086 2 8 3.79086 8 6H4L2 22H22L20 6H16C16 3.79086 14.2091 2 12 2ZM14 6C14 4.89543 13.1046 4 12 4C10.8954 4 10 4.89543 10 6H14ZM4.26556 20L5.76556 8H18.2344L19.7344 20H4.26556Z" fill="black"/>
<path fill-rule="evenodd" clip-rule="evenodd" d="M8 11C8 13.2091 9.79086 15 12 15C14.2091 15 16 13.2091 16 11V10H14V11C14 12.1046 13.1046 13 12 13C10.8954 13 10 12.1046 10 11V10H8V11Z" fill="black"/>
</svg>
