<svg width="24" height="24" viewBox="0 0 24 24" fill="none" xmlns="http://www.w3.org/2000/svg">
<path fill-rule="evenodd" clip-rule="evenodd" d="M19.5 2H4.49999L1.80683 7.38632C1.05701 8.88595 1.6513 10.6348 3 11.4272V22H10V16H14V22H21V11.4272C22.3487 10.6348 22.943 8.88594 22.1931 7.38632L19.5 2ZM13.3858 9.40027L12 8.84593L10.6142 9.40027C9.89893 9.68636 9.10105 9.68636 8.38582 9.40027L6.90887 8.80949L5.05258 9.73764C4.83659 9.84563 4.59077 9.87855 4.35398 9.83119C3.65187 9.69077 3.27547 8.92117 3.59568 8.28074L5.73606 4H18.2639L20.4043 8.28075C20.7245 8.92117 20.3481 9.69077 19.646 9.83119C19.4092 9.87855 19.1634 9.84563 18.9474 9.73764L17.0911 8.80949L15.6142 9.40027C14.8989 9.68636 14.101 9.68636 13.3858 9.40027ZM19 11.8217C18.6727 11.7754 18.3527 11.6764 18.053 11.5265L17 11L16.3569 11.2572C15.1649 11.734 13.8351 11.734 12.643 11.2572L12 11L11.3569 11.2572C10.1649 11.734 8.83509 11.734 7.64303 11.2572L6.99999 11L5.947 11.5265C5.64727 11.6764 5.32731 11.7754 5 11.8217V20H8V14H16V20H19V11.8217Z" fill="black"/>
</svg>
