<svg width="24" height="24" viewBox="0 0 24 24" fill="none" xmlns="http://www.w3.org/2000/svg">
<path fill-rule="evenodd" clip-rule="evenodd" d="M6.69722 3H10V4C10 5.10457 10.8954 6.00003 12 6.00003C13.1046 6.00003 14 5.1046 14 4.00002V3H17.3028L22.7892 6.65777L19.8586 12.5189L18 11.125V21H6.00001V11.125L4.14145 12.5189L1.21078 6.65777L6.69722 3ZM7.30279 5L3.78923 7.34247L4.85856 9.48108L6.16667 8.5H8.00001V19H16V8.5H17.8333L19.1414 9.48108L20.2108 7.34247L16.6972 5H15.874C15.43 6.72524 13.8639 8.00003 12 8.00003C10.1362 8.00003 8.57005 6.72524 8.12602 5H7.30279Z" fill="black"/>
</svg>
